<?xml version="1.0" encoding="utf-8"?>
<!-- Generator: Adobe Illustrator 19.2.1, SVG Export Plug-In . SVG Version: 6.00 Build 0)  -->
<svg version="1.1" id="svg2" xmlns="http://www.w3.org/2000/svg" xmlns:xlink="http://www.w3.org/1999/xlink" x="0px" y="0px"
	 viewBox="0 0 900 900" style="enable-background:new 0 0 900 900;" xml:space="preserve">
<g id="g4" transform="matrix(1.7656463,0,0,1.7656463,324.90716,255.00942)">
	<g id="g6">
		<path id="path8" style="fill:#FFFFFF;stroke:#000000;stroke-width:0.172;" d="M-122.3,84.29c0,0,0.1,1.89-0.73,1.88
			c-0.82-0.02-17.27-48.09-37.8-45.85C-160.83,40.31-143.05,32.96-122.3,84.29z"/>
	</g>
	<g id="g10">
		<path id="path12" style="fill:#FFFFFF;stroke:#000000;stroke-width:0.172;" d="M-118.77,81.26c0,0-0.55,1.82-1.32,1.52
			c-0.77-0.3,0.11-51.1-19.95-55.98C-140.04,26.8-120.82,25.94-118.77,81.26L-118.77,81.26z"/>
	</g>
	<g id="g14">
		<path id="path16" style="fill:#FFFFFF;stroke:#000000;stroke-width:0.172;" d="M-91.28,123.59c0,0,1.64,0.96,1.17,1.64
			c-0.47,0.67-49.64-12.13-59.1,6.23C-149.22,131.46-145.54,112.57-91.28,123.59L-91.28,123.59z"/>
	</g>
	<g id="g18">
		<path id="path20" style="fill:#FFFFFF;stroke:#000000;stroke-width:0.172;" d="M-94.09,133.8c0,0,1.86,0.4,1.62,1.19
			c-0.23,0.79-50.94,4.13-54.13,24.53C-146.6,159.52-149.06,140.44-94.09,133.8z"/>
	</g>
	<g id="g22">
		<path id="path24" style="fill:#FFFFFF;stroke:#000000;stroke-width:0.172;" d="M-98.3,128.28c0,0,1.78,0.66,1.43,1.41
			s-51-3.34-57.13,16.37C-154,146.06-153.65,126.82-98.3,128.28z"/>
	</g>
	<g id="g26">
		<path id="path28" style="fill:#FFFFFF;stroke:#000000;stroke-width:0.172;" d="M-109.01,110.07c0,0,1.31,1.38,0.67,1.9
			s-44.38-25.34-58.53-10.29C-166.87,101.68-158.13,84.53-109.01,110.07L-109.01,110.07z"/>
	</g>
	<g id="g30">
		<path id="path32" style="fill:#FFFFFF;stroke:#000000;stroke-width:0.172;" d="M-116.55,114.26c0,0,1.45,1.22,0.88,1.81
			c-0.58,0.59-46.97-20.15-59.32-3.6C-174.99,112.47-168.25,94.45-116.55,114.26z"/>
	</g>
	<g id="g34">
		<path id="path36" style="fill:#FFFFFF;stroke:#000000;stroke-width:0.172;" d="M-119.15,118.34c0,0,1.6,1,1.11,1.67
			c-0.49,0.66-49.27-13.56-59.25,4.51C-177.29,124.52-173.07,105.75-119.15,118.34L-119.15,118.34z"/>
	</g>
	<g id="g38">
		<path id="path40" style="fill:#FFFFFF;stroke:#000000;stroke-width:0.172;" d="M-108.42,118.95c0,0,1.12,1.53,0.42,1.97
			c-0.7,0.43-40.77-30.82-56.73-17.71C-164.73,103.21-153.86,87.33-108.42,118.95z"/>
	</g>
	<g id="g42">
		<path id="path44" style="fill:#FFFFFF;stroke:#000000;stroke-width:0.172;" d="M-128.2,90c0,0,0.6,1.8-0.2,2
			c-0.8,0.2-29.4-41.8-48.6-34.2C-177,57.8-161.8,46-128.2,90z"/>
	</g>
	<g id="g46">
		<path id="path48" style="fill:#FFFFFF;stroke:#000000;stroke-width:0.172;" d="M-127.5,96.98c0,0,0.97,1.63,0.23,2
			c-0.74,0.37-37.72-34.48-54.83-22.91C-182.1,76.06-169.8,61.26-127.5,96.98L-127.5,96.98z"/>
	</g>
	<g id="g50">
		<path id="path52" style="fill:#FFFFFF;stroke:#000000;stroke-width:0.172;" d="M-127.62,101.35c0,0,1.12,1.53,0.42,1.97
			c-0.7,0.43-40.77-30.82-56.73-17.71C-183.93,85.61-173.06,69.73-127.62,101.35L-127.62,101.35z"/>
	</g>
	<g id="g54">
		<path id="path56" style="fill:#FFFFFF;stroke:#000000;" d="M-129.83,103.06c0.5,6.05,1.49,12.62,3.23,15.74c0,0-3.6,12.4,5.2,25.6
			c0,0-0.4,7.2,1.2,10.4c0,0,4,8.4,8.8,9.2c3.88,0.65,12.61,3.72,22.47,5.12c0,0,17.13,14.08,13.93,26.88c0,0-0.4,16.4-4,18
			c0,0,11.6-11.2,2,5.6l-4.4,18.8c0,0,25.6-21.6,10-3.2l-10,26c0,0,19.6-18.4,12.4-10l-3.2,8.8c0,0,43.2-27.2,12.4,2.4
			c0,0,8-3.6,12.4-0.8c0,0,6.8-1.2,6,0.4c0,0-20.8,10.4-24.4,28.8c0,0,8.4-10,5.2,0.8l0.4,11.6c0,0,4-21.6,3.6,16
			c0,0,19.2-18,7.6,2.8v16.8c0,0,15.2-16.4,8.8-3.6c0,0,10-8.8,6,6.4c0,0-0.8,10.4,3.6-0.8c0,0,16-30.6,10-4.4c0,0-0.8,19.2,4,4.4
			c0,0,0.4,10.4,9.6,17.6c0,0-1.2-50.8,11.6-14.8l4,16.4c0,0,2.8-9.2,2.4-14.4l8,8c0,0,15.2-22.8,12-9.6c0,0-7.6,16-6,20.8
			c0,0,16.8-34.8,18-36.4c0,0-2,42.4,8.8,6.4c0,0,5.6,12,2.8,16.4c0,0,8-8,7.2-11.2c0,0,4.6-8.2,7.4,5.4c0,0,1.8,9.4,3.4,6.2
			c0,0,4,24,5.2,1.2c0,0,1.6-13.6-5.6-25.2c0,0,0.8-3.2-2-7.2c0,0,13.6,21.6,6.4-7.2c0,0,11.2,8,12.4,8c0,0-13.6-23.2-4.8-18.4
			c0,0-5.2-10.4,12.8,1.6c0,0-16-16,1.6-6.4c0,0,8,6.4,0.4-3.6c0,0-14.4-16,7.6,2c0,0,11.6,16.4,12.4,19.2c0,0-10-29.2-14.4-32
			c0,0,8.4-36.4,49.6-20.8c0,0,6.8,17.2,11.2-1.2c0,0,12.8-6.4,24,21.2c0,0,4-13.6,3.2-16.4c0,0,6.8,1.2,6,0c0,0,13.2,4.4,14.4,3.6
			c0,0,6.8,6.8,7.2,3.2c0,0,9.2,2.8,7.2-0.8c0,0,8.8,15.6,9.2,19.2l2.4-14l2,2.8c0,0,1.6-7.6,0.8-8.8s20,6.8,24.8,27.6l2,8.4
			c0,0,6-14.8,4.4-18.8c0,0,5.2,0.8,5.6,5.2c0,0,4-23.2-0.8-29.2c0,0,4.4-0.8,5.6,2.8v-7.2c0,0,7.2,0.8,7.2-1.6c0,0,4.4-4,6.4,0.8
			c0,0-12.4-35.2,6-16c0,0,7.2,10.8,3.6-8s-7.6-20.4-2.8-20.8c0,0,0.8-3.6-1.2-5.2s1.2,0,1.2,0s4.8,4-0.4-18c0,0,6.4,1.6-5.6-27.6
			c0,0,2.8-2.4-1.2-10.8c0,0,8,4.4,10.8,2.8c0,0-0.4-1.6-3.6-5.6c0,0-21.6-54.8-1.2-32.8c0,0,11.85,13.55,5.45-9.25
			c0,0-9.11-24.01-8.33-28.31L-129.83,103.06L-129.83,103.06z"/>
	</g>
	<g id="g58">
		<path id="path60" style="fill:#CC7226;stroke:#000000;" d="M299.72,80.25c0.62,0.18,2.83,1.31,4.08,2.96c0,0,6.8,10.8,1.6-7.6
			c0,0-9.2-28.8-0.4-17.6c0,0,6,7.2,2.8-6.4c-3.86-16.43-6.4-22.8-6.4-22.8S313,33.6,286.2-6l8.8,3.6c0,0-19.6-39.6-41.2-44.8l-8-6
			c0,0,38.4-38,25.6-74.8c0,0-6.8-5.2-16.4,4c0,0-6.4,4.8-12.4,3.2c0,0-30.8,1.2-32.8,1.2s-36.8-37.2-102.4-19.6c0,0-5.2,2-9.6,0.8
			c0,0-18.4-16-67.2,6.8c0,0-10,2-11.6,2s-4.4,0-12.4,6.4c-8,6.4-8.4,7.2-10.4,8.8c0,0-16.4,11.2-21.2,12c0,0-11.6,6.4-16,16.4
			l-3.6,1.2c0,0-1.6,7.2-2,8.4c0,0-4.8,3.6-5.6,9.2c0,0-8.8,6-8.4,10.4c0,0-1.6,5.2-2.4,10c0,0-7.2,4.8-6.4,7.6c0,0-7.6,14-6.4,20.8
			c0,0-6.4-0.4-9.2,2c0,0-0.8,4.8-2.4,5.2c0,0-2.8,1.2-0.4,5.2c0,0-1.6,2.8-2,4.4c0,0,0.8,2.8-3.6,8.4c0,0-6.4,18.8-4.4,24
			c0,0,0.4,4.8-2.4,6.4c0,0-3.6-0.4,4.8,11.6c0,0,0.8,1.2-2.4,3.6c0,0-17.2,3.6-19.6,20c0,0-13.6,14.8-13.6,20
			c0,2.31,0.27,5.45,0.97,10.06c0,0-0.57,8.34,27.03,9.14S299.72,80.25,299.72,80.25L299.72,80.25z"/>
	</g>
	<g id="g62">
		<path id="path64" style="fill:#CC7226;" d="M-115.6,102.6c-25-39.4-10.6,17-10.6,17c8.8,34.4,138.4-3.2,138.4-3.2S181,86,192.2,82
			c11.2-4,106.4,2.4,106.4,2.4L293,67.6c-64.8-46.4-84-23.2-97.6-27.2c-13.6-4-11.2,5.6-14.4,6.4s-42.4-24-48.8-23.2
			c-6.4,0.8-31.74-22.95-16.8,8.8c16,34-58.4,39.2-75.2,28s7.2,18.4,7.2,18.4c18.4,20-16,3.2-16,3.2C-3,69.2-27,94.8-30.2,95.6
			s-8,4-8.8-2.4s-8.31-23.1-40,3.2C-99,113-112.8,91-112.8,91L-115.6,102.6L-115.6,102.6z"/>
	</g>
	<g id="g66">
		<path id="path68" style="fill:#E87F3A;" d="M133.51,25.35c-6.4,0.8-31.77-22.94-16.8,8.8c16.6,35.2-58.4,39.2-75.2,28
			c-16.8-11.2,7.2,18.4,7.2,18.4c18.4,20-16,3.2-16,3.2c-34.4-12.8-58.4,12.8-61.6,13.6s-8,4-8.8-2.4c-0.8-6.4-8.18-22.93-40,3.2
			c-21.24,17.34-34.73-4.11-34.73-4.11l-3.2,10.11c-25-39.8-9.93,18.51-9.93,18.51c8.81,34.4,139.06-4.51,139.06-4.51
			s168.8-30.4,180-34.4c11.2-4,105.53,2.33,105.53,2.33l-5.53-17.31c-64.8-46.4-83.2-22.62-96.8-26.62c-13.6-4-11.2,5.6-14.4,6.4
			S139.91,24.55,133.51,25.35L133.51,25.35z"/>
	</g>
	<g id="g70">
		<path id="path72" style="fill:#EA8C4D;" d="M134.82,27.09c-6.4,0.8-31.14-23.23-16.8,8.8c16.2,36.2-58.4,39.2-75.2,28
			s7.2,18.4,7.2,18.4c18.4,20-16,3.2-16,3.2c-34.4-12.8-58.4,12.8-61.6,13.6s-8,4-8.8-2.4c-0.8-6.4-8.05-22.77-40,3.2
			c-22.47,18.09-35.66-2.82-35.66-2.82l-3.6,8.62c-23.8-39-9.25,20.02-9.25,20.02c8.8,34.4,139.71-5.82,139.71-5.82
			s168.8-30.4,180-34.4c11.2-4,104.65,2.25,104.65,2.25l-5.45-17.82c-64.8-46.4-82.4-22.04-96-26.04c-13.6-4-11.2,5.6-14.4,6.4
			C180.42,51.09,141.22,26.29,134.82,27.09L134.82,27.09z"/>
	</g>
	<g id="g74">
		<path id="path76" style="fill:#EC9961;" d="M136.13,28.84c-6.4,0.8-31.13-23.23-16.8,8.8c16.8,37.56-58.94,38.85-75.2,28
			c-16.8-11.2,7.2,18.4,7.2,18.4c18.4,20-16,3.2-16,3.2c-34.4-12.8-58.4,12.8-61.6,13.6c-3.2,0.8-8,4-8.8-2.4
			c-0.8-6.4-7.92-22.6-40,3.2c-23.71,18.83-36.59-1.53-36.59-1.53l-4,7.13c-21.8-36.8-8.58,21.52-8.58,21.52
			c8.8,34.4,140.37-7.12,140.37-7.12s168.8-30.4,180-34.4c11.2-4,103.78,2.18,103.78,2.18l-5.38-18.33
			c-64.8-46.4-81.6-21.46-95.2-25.46c-13.6-4-11.2,5.6-14.4,6.4S142.53,28.04,136.13,28.84L136.13,28.84z"/>
	</g>
	<g id="g78">
		<path id="path80" style="fill:#EEA575;" d="M137.44,30.58c-6.4,0.8-30.63-23.45-16.8,8.8c16.8,39.2-58.4,39.2-75.2,28
			s7.2,18.4,7.2,18.4c18.4,20-16,3.2-16,3.2c-34.4-12.8-58.4,12.8-61.6,13.6s-8,4-8.8-2.4c-0.8-6.4-7.78-22.43-40,3.2
			c-24.95,19.58-37.51-0.23-37.51-0.23l-4.4,5.63c-19.8-34.8-7.91,23.04-7.91,23.04c8.8,34.4,141.02-8.44,141.02-8.44
			s168.8-30.4,180-34.4c11.2-4,102.91,2.11,102.91,2.11l-5.31-18.84c-64.8-46.4-80.8-20.87-94.4-24.87c-13.6-4-11.2,5.6-14.4,6.4
			S143.84,29.78,137.44,30.58L137.44,30.58z"/>
	</g>
	<g id="g82">
		<path id="path84" style="fill:#F1B288;" d="M138.75,32.33c-6.4,0.8-32.37-22.65-16.8,8.8c19.2,38.8-58.4,39.2-75.2,28
			s7.2,18.4,7.2,18.4c18.4,20-16,3.2-16,3.2c-34.4-12.8-58.4,12.8-61.6,13.6s-8,4-8.8-2.4c-0.8-6.4-7.65-22.27-40,3.2
			c-26.18,20.33-38.44,1.05-38.44,1.05l-4.8,4.15c-18-33.2-7.24,24.54-7.24,24.54c8.8,34.4,141.68-9.74,141.68-9.74
			s168.8-30.4,180-34.4c11.2-4,102.03,2.04,102.03,2.04l-5.23-19.35c-64.8-46.4-80-20.29-93.6-24.29c-13.6-4-11.2,5.6-14.4,6.4
			S145.15,31.53,138.75,32.33L138.75,32.33z"/>
	</g>
	<g id="g86">
		<path id="path88" style="fill:#F3BF9C;" d="M140.06,34.07c-6.4,0.8-32.75-22.46-16.8,8.8c20.4,40-58.41,39.2-75.21,28
			s7.2,18.4,7.2,18.4c18.4,20-16,3.2-16,3.2c-34.4-12.8-58.4,12.8-61.6,13.6s-8,4-8.8-2.4c-0.8-6.4-7.52-22.09-40,3.2
			c-27.42,21.08-39.37,2.35-39.37,2.35l-5.2,2.65c-16-30.2-6.56,26.06-6.56,26.06c8.8,34.4,142.32-11.06,142.32-11.06
			s168.8-30.4,180-34.4c11.2-4,101.16,1.96,101.16,1.96l-5.16-19.85c-64.8-46.4-79.2-19.71-92.8-23.71c-13.6-4-11.2,5.6-14.4,6.4
			S146.45,33.27,140.06,34.07L140.06,34.07z"/>
	</g>
	<g id="g90">
		<path id="path92" style="fill:#F5CCB0;" d="M141.36,35.82c-6.4,0.8-33.84-21.88-16.8,8.8c22,39.6-58.4,39.2-75.2,28
			s7.2,18.4,7.2,18.4c18.4,20-16,3.2-16,3.2c-34.4-12.8-58.4,12.8-61.6,13.6s-8,4-8.8-2.4c-0.8-6.4-7.39-21.93-40,3.2
			c-28.66,21.82-40.29,3.64-40.29,3.64l-5.6,1.16c-14.4-28.4-5.89,27.56-5.89,27.56c8.8,34.4,142.98-12.36,142.98-12.36
			s168.8-30.4,180-34.4c11.2-4,100.3,1.89,100.3,1.89l-5.1-20.36c-64.8-46.4-78.4-19.13-92-23.13c-13.6-4-11.2,5.6-14.4,6.4
			S147.76,35.02,141.36,35.82z"/>
	</g>
	<g id="g94">
		<path id="path96" style="fill:#F8D8C4;" d="M142.67,37.57c-6.4,0.8-33.84-21.88-16.8,8.8c22,39.6-58.4,39.2-75.2,28
			s7.2,18.4,7.2,18.4c18.4,20-16,3.2-16,3.2c-34.4-12.8-58.4,12.8-61.6,13.6s-8,4-8.8-2.4s-7.26-21.76-40,3.2
			c-29.89,22.57-41.21,4.93-41.21,4.93l-6-0.33c-13.61-26.4-5.22,29.08-5.22,29.08c8.8,34.4,143.63-13.68,143.63-13.68
			s168.8-30.4,180-34.4c11.2-4,99.42,1.82,99.42,1.82l-5.01-20.87c-64.81-46.4-77.61-18.55-91.21-22.55c-13.6-4-11.2,5.6-14.4,6.4
			S149.07,36.76,142.67,37.57L142.67,37.57z"/>
	</g>
	<g id="g98">
		<path id="path100" style="fill:#FAE5D7;" d="M143.98,39.31c-6.4,0.8-33.45-22.09-16.8,8.8c22,40.8-58.4,39.2-75.2,28
			s7.2,18.4,7.2,18.4c18.4,20-16,3.2-16,3.2c-34.4-12.8-58.4,12.8-61.6,13.6c-3.2,0.8-8,4-8.8-2.4s-7.13-21.59-40,3.2
			c-31.13,23.31-42.14,6.22-42.14,6.22l-6.4-1.82c-13-24-4.55,30.58-4.55,30.58c8.8,34.4,144.29-14.98,144.29-14.98
			s168.8-30.4,180-34.4c11.2-4,98.55,1.75,98.55,1.75l-4.95-21.38c-64.8-46.4-76.8-17.96-90.4-21.96c-13.6-4-11.2,5.6-14.4,6.4
			S150.38,38.51,143.98,39.31L143.98,39.31z"/>
	</g>
	<g id="g102">
		<path id="path104" style="fill:#FCF2EB;" d="M145.29,41.06c-6.4,0.8-32.37-22.64-16.8,8.8c21.2,42.8-58.4,39.2-75.2,28
			s7.2,18.4,7.2,18.4c18.4,20-16,3.2-16,3.2c-34.4-12.8-58.4,12.8-61.6,13.6s-8,4-8.8-2.4s-7-21.43-40,3.2
			c-32.37,24.05-43.07,7.5-43.07,7.5l-6.8-3.3c-12.8-23.2-3.87,32.09-3.87,32.09c8.8,34.4,144.94-16.29,144.94-16.29
			s168.8-30.4,180-34.4c11.2-4,97.67,1.67,97.67,1.67l-4.87-21.89c-64.8-46.4-76-17.38-89.6-21.38c-13.6-4-11.2,5.6-14.4,6.4
			C190.89,65.06,151.69,40.25,145.29,41.06L145.29,41.06z"/>
	</g>
	<g id="g106">
		<path id="path108" style="fill:#FFFFFF;" d="M-115.8,119.6c-12.8-22-3.2,33.6-3.2,33.6c8.8,34.4,145.6-17.6,145.6-17.6
			s168.8-30.4,180-34.4c11.2-4,96.8,1.6,96.8,1.6l-4.8-22.4c-64.8-46.4-75.2-16.8-88.8-20.8c-13.6-4-11.2,5.6-14.4,6.4
			S153,42,146.6,42.8s-31.62-23.01-16.8,8.8c22.23,47.71-60.76,37.63-75.2,28C37.8,68.4,61.8,98,61.8,98c18.4,20-16,3.2-16,3.2
			C11.4,88.4-12.6,114-15.8,114.8s-8,4-8.8-2.4s-6.86-21.26-40,3.2c-33.6,24.8-44,8.8-44,8.8L-115.8,119.6L-115.8,119.6z"/>
	</g>
	<g id="g110">
		<path id="path112" d="M-74.2,149.6c0,0-7.2,11.6,13.6,24.8c0,0,1.4,1.4-16.6-2.8c0,0-6.2-2-7.8-12.4c0,0-4.8-4.4-9.6-10
			C-99.4,143.6-74.2,149.6-74.2,149.6z"/>
	</g>
	<g id="g114">
		<path id="path116" style="fill:#CCCCCC;" d="M65.8,102c0,0,17.7,26.82,17.1,31.6c-1.3,10.4-1.5,20,1.7,24c3.2,4,12,37.2,12,37.2
			s-0.4,1.2,12-36.8c0,0,11.6-16-8.4-34.4C100.2,123.6,65,94.8,65.8,102L65.8,102z"/>
	</g>
	<g id="g118">
		<path id="path120" d="M-54.2,176.4c0,0,11.2,7.2-3.2,38.4l6.4-2.4c0,0-0.8,11.2-4,13.6l7.2-3.2c0,0,4.8,8,0.8,12.8
			c0,0,16.8,8,16,14.4c0,0,6.4-8,2.4-14.4s-11.2-2.4-10.4-20.8l-8.8,3.2c0,0,5.6-8.8,5.6-15.2l-8,2.4c0,0,15.47-26.58,4.8-28
			C-51.4,176.4-54.2,176.4-54.2,176.4z"/>
	</g>
	<g id="g122">
		<path id="path124" style="fill:#CCCCCC;" d="M-21.8,193.2c0,0,2.8-4.4,0-3.6s-34,15.6-40,25.2C-61.8,214.8-27.4,190.4-21.8,193.2
			L-21.8,193.2z"/>
	</g>
	<g id="g126">
		<path id="path128" style="fill:#CCCCCC;" d="M-11.4,201.2c0,0,2.8-4.4,0-3.6s-34,15.6-40,25.2C-51.4,222.8-17,198.4-11.4,201.2
			L-11.4,201.2z"/>
	</g>
	<g id="g130">
		<path id="path132" style="fill:#CCCCCC;" d="M1.8,186c0,0,2.8-4.4,0-3.6s-34,15.6-40,25.2C-38.2,207.6-3.8,183.2,1.8,186L1.8,186z
			"/>
	</g>
	<g id="g134">
		<path id="path136" style="fill:#CCCCCC;" d="M-21.4,229.6c0,0,0-6-2.8-5.2s-38.8,18.4-44.8,28C-69,252.4-27,226.8-21.4,229.6z"/>
	</g>
	<g id="g138">
		<path id="path140" style="fill:#CCCCCC;" d="M-20.2,218.8c0,0,1.2-4.8-1.6-4c-2,0-28.4,11.6-34.4,21.2
			C-56.2,236-26.6,214.4-20.2,218.8z"/>
	</g>
	<g id="g142">
		<path id="path144" style="fill:#CCCCCC;" d="M-34.6,266.4l-10,7.6c0,0,10.4-7.6,14-6.4c0,0-6.8,11.2-7.6,16.4
			c0,0,10.4-12.8,16-12.4c0,0,7.6,0.4,7.6,11.2c0,0,5.6-10.4,8.8-10c0,0,1.2,6.4,0,13.2c0,0,4-7.6,8-6c0,0,6.4-2,5.6,9.6
			c0,0,0,10.4-0.8,13.2c0,0,5.6-26.4,8-26.8c0,0,8-1.2,12.8,7.6c0,0-4-7.6,0.8-5.6c0,0,10.8,1.6,14,8.4c0,0-6.8-12-1.2-8.8l8,6.4
			c0,0,8.4,21.2,10.4,22.8c0,0-7.6-21.6-6-21.6c0,0-2-12,3.2,2.8c0,0-3.2-14,2.4-13.2s10,10.8,18.4,8.4c0,0,9.6,5.6,11.6-63.6
			L-34.6,266.4L-34.6,266.4z"/>
	</g>
	<g id="g146">
		<path id="path148" d="M-29.8,173.6c0,0,14.8-6,54.8,0c0,0,7.2,0.4,14-8.4s33.6-16,40-14l9.6,6.4l0.8,1.2c0,0,12.4,10.4,12.8,18
			s-14.4,55.6-24,71.6c-9.6,16-19.2,28.4-38.4,26c0,0-20.8-4-46.4,0c0,0-29.2-1.6-32-9.6s11.2-23.2,11.2-23.2s4.4-8.4,3.2-22.8
			C-25.4,204.4-25,176.4-29.8,173.6L-29.8,173.6z"/>
	</g>
	<g id="g150">
		<path id="path152" style="fill:#E5668C;" d="M-7.8,175.6C0.6,194-29,259.2-29,259.2c-2,1.6,12.66,7.65,22.8,5.2
			C4.75,261.76,45,266,45,266c23.6-15.6,36.4-60,36.4-60s10.4-24-7.2-27.2C56.6,175.6-7.8,175.6-7.8,175.6L-7.8,175.6z"/>
	</g>
	<g id="g154">
		<path id="path156" style="fill:#B23259;" d="M-9.83,206.5c3.33-12.79,4.91-24.59,2.03-30.9c0,0,62.4,6.4,73.6-14.4
			c4.24-7.87,19,22.8,18.6,32.4c0,0-63,14.4-77.8,3.2L-9.83,206.5L-9.83,206.5z"/>
	</g>
	<g id="g158">
		<path id="path160" style="fill:#A5264C;" d="M-5.4,222.8c0,0,2,7.2-0.4,11.2c0,0-1.6,0.8-2.8,1.2c0,0,1.2,3.6,7.2,5.2
			c0,0,2,4.4,4.4,4.8s7.2,6,11.2,4.8s15.2-5.2,15.2-5.2s5.6-3.2,14.4,0.4c0,0,2.38-0.8,2.8-4.8c0.5-4.7,3.6-8.4,5.6-10.4
			c2-2,11.6-14.8,10.4-15.2S-5.4,222.8-5.4,222.8L-5.4,222.8z"/>
	</g>
	<g id="g162">
		<path id="path164" style="fill:#FF727F;stroke:#000000;" d="M-9.8,174.4c0,0-2.8,22.4,0.4,30.8c3.2,8.4,2.4,10.4,1.6,14.4
			c-0.8,4,3.6,14,9.2,20l12,1.6c0,0,15.2-3.6,24.4-0.8c0,0,8.99,1.34,12.4-13.6c0,0,4.8-6.4,12-9.2s14.4-44.4,10.4-52.4
			s-18.4-12.4-34.4,3.2S20.2,167.2-9.8,174.4L-9.8,174.4z"/>
	</g>
	<g id="g166">
		<path id="path168" style="fill:#FFFFCC;stroke:#000000;stroke-width:0.5;" d="M-8.2,249.2c0,0-0.8-2-5.2-2.4c0,0-22.4-3.6-30.8-16
			c0,0-6.8-5.6-2.4,6c0,0,10.4,20.4,17.2,23.2C-29.4,260-13,264-8.2,249.2z"/>
	</g>
	<g id="g170">
		<path id="path172" style="fill:#CC3F4C;" d="M71.74,185.23c0.66-7.91,2.61-16.52,0.86-20.03c-6.45-12.89-23.42-7.5-34.4,3.2
			c-16,15.6-18-1.2-48,6c0,0-1.75,13.96-0.9,23.98c0,0,37.31-11.58,38.11-5.98c0,0,1.6-3.2,10.8-3.2S70.14,188.03,71.74,185.23z"/>
	</g>
	<g id="g174">
		<path id="path176" style="fill:none;stroke:#A51926;stroke-width:2;" d="M28.6,175.2c0,0,4.8,4.8,1.2,14.4c0,0-14.4,16-12.4,30"/>
	</g>
	<g id="g178">
		<path id="path180" style="fill:#FFFFCC;stroke:#000000;stroke-width:0.5;" d="M-19.4,260c0,0-4.4-12.8,4.4-6l3.6,3.6
			C-12.6,259.2-18.2,263.2-19.4,260z"/>
	</g>
	<g id="g182">
		<path id="path184" style="fill:#FFFFCC;stroke:#000000;stroke-width:0.5;" d="M-14.36,261.2c0,0-3.52-10.24,3.52-4.8l2.88,2.88
			C-12.52,260.56-7.96,263.12-14.36,261.2L-14.36,261.2z"/>
	</g>
	<g id="g186">
		<path id="path188" style="fill:#FFFFCC;stroke:#000000;stroke-width:0.5;" d="M-9.56,261.2c0,0-3.52-10.24,3.52-4.8l2.88,2.88
			C-6.52,260.56-3.16,263.12-9.56,261.2L-9.56,261.2z"/>
	</g>
	<g id="g190">
		<path id="path192" style="fill:#FFFFCC;stroke:#000000;stroke-width:0.5;" d="M-2.96,261.4c0,0-3.52-10.24,3.52-4.8
			c0,0,4.38,2.33,2.88,2.88C0.48,260.56,3.44,263.32-2.96,261.4L-2.96,261.4z"/>
	</g>
	<g id="g194">
		<path id="path196" style="fill:#FFFFCC;stroke:#000000;stroke-width:0.5;" d="M3.52,261.32c0,0-3.52-10.24,3.52-4.8l2.88,2.88
			C8.96,260.68,9.92,263.24,3.52,261.32L3.52,261.32z"/>
	</g>
	<g id="g198">
		<path id="path200" style="fill:#FFFFCC;stroke:#000000;stroke-width:0.5;" d="M10.2,262c0,0-4.8-12.4,4.4-6l3.6,3.6
			C17,261.2,18.2,264.4,10.2,262z"/>
	</g>
	<g id="g202">
		<path id="path204" style="fill:none;stroke:#A5264C;stroke-width:2;" d="M-18.2,244.8c0,0,13.2-2.8,19.2,0.4c0,0,6,1.2,7.2,0.8
			s4.4-0.8,4.4-0.8"/>
	</g>
	<g id="g206">
		<path id="path208" style="fill:none;stroke:#A5264C;stroke-width:2;" d="M15.8,253.6c0,0,12-13.6,24-9.2c7.02,2.57,6-0.8,6.8-3.6
			s1-7,6-10"/>
	</g>
	<g id="g210">
		<path id="path212" style="fill:#FFFFCC;stroke:#000000;stroke-width:0.5;" d="M33,237.6c0,0-4-10.8-6.8,2s-6,16.4-7.6,19.2
			c0,0,0,5.2,8.4,4.8c0,0,10.8-0.4,11.2-3.2S37,246,33,237.6L33,237.6z"/>
	</g>
	<g id="g214">
		<path id="path216" style="fill:none;stroke:#A5264C;stroke-width:2;" d="M47,244.8c0,0,3.6-2.4,6-1.2"/>
	</g>
	<g id="g218">
		<path id="path220" style="fill:none;stroke:#A5264C;stroke-width:2;" d="M53.5,228.4c0,0,2.9-4.9,7.7-5.7"/>
	</g>
	<g id="g222">
		<path id="path224" style="fill:#B2B2B2;" d="M-25.8,265.2c0,0,18,3.2,22.4,1.6l0.4,2l-20.8-1.2C-23.8,267.6-35.4,262-25.8,265.2z"
			/>
	</g>
	<g id="g226">
		<path id="path228" style="fill:#FFFFCC;stroke:#000000;stroke-width:0.5;" d="M-11.8,172l19.6,0.8c0,0,7.2,30.8,3.6,38.4
			c0,0-1.2,2.8-4-2.8c0,0-18.4-32.8-21.6-34.8S-13,172-11.8,172z"/>
	</g>
	<g id="g230">
		<path id="path232" style="fill:#FFFFCC;stroke:#000000;stroke-width:0.5;" d="M-88.9,169.3c0,0,8.9,1.7,21.5,4.3
			c0,0,4.8,22.4,8,27.2c3.2,4.8-0.4,4.8-4,2C-67,200-81.8,186-83.8,181.6S-88.9,169.3-88.9,169.3z"/>
	</g>
	<g id="g234">
		<path id="path236" style="fill:#FFFFCC;stroke:#000000;stroke-width:0.5;" d="M-67.04,173.82c0,0,5.8,1.55,6.81,3.76
			c1.01,2.22-1.2,5.51-1.2,5.51s-1,3.31-2.2,1.15C-64.84,182.07-67.71,174.41-67.04,173.82L-67.04,173.82z"/>
	</g>
	<g id="g238">
		<path id="path240" d="M-67,173.6c0,0,3.6,5.2,7.2,5.2s3.98-0.41,6.8,0.2c4.6,1,4.2-1,10.8,0.2c2.64,0.48,5.2-0.4,8,0.8
			s6,0.4,7.2-1.6s6-6.2,6-6.2s-12.8,1.8-15.6,2.6C-36.6,174.8-59,176-67,173.6z"/>
	</g>
	<g id="g242">
		<path id="path244" style="fill:#FFFFCC;stroke:#000000;stroke-width:0.5;" d="M-22.4,173.8c0,0-6.45,3.5-6.85,5.9
			s5.25,6.1,5.25,6.1s2.75,4.6,3.35,2.2S-21.6,174.2-22.4,173.8z"/>
	</g>
	<g id="g246">
		<path id="path248" style="fill:#FFFFCC;stroke:#000000;stroke-width:0.5;" d="M-59.89,179.26c0,0,7.01,11.19,7.22-0.02
			c0,0,0.56-1.26-1.2-1.28C-59.94,177.89-58.42,173.78-59.89,179.26z"/>
	</g>
	<g id="g250">
		<path id="path252" style="fill:#FFFFCC;stroke:#000000;stroke-width:0.5;" d="M-52.71,179.51c0,0,7.92,11.19,7.29-0.09
			c0,0,0.01-0.33-1.75-0.48C-51.92,178.52-51.57,174-52.71,179.51L-52.71,179.51z"/>
	</g>
	<g id="g254">
		<path id="path256" style="fill:#FFFFCC;stroke:#000000;stroke-width:0.5;" d="M-45.49,179.52c0,0,7.96,10.63,7.29,0.96
			c0,0,0.12-1.23-1.53-1.53C-43.63,178.24-43.84,175-45.49,179.52L-45.49,179.52z"/>
	</g>
	<g id="g258">
		<path id="path260" style="fill:#FFFFCC;stroke:#000000;stroke-width:0.5;" d="M-38.62,179.6c0,0,7.9,11.56,8.25,1.78
			c0,0,1.64-1.38-0.1-1.6C-36.29,179.04-35.49,174.59-38.62,179.6z"/>
	</g>
	<g id="g262">
		<path id="path264" style="fill:#E5E5B2;" d="M-74.79,183.13l-7.66-1.53c-2.6-5-4.7-11.15-4.7-11.15s6.35,1,18.85,3.8
			c0,0,0.88,3.32,2.35,9.11L-74.79,183.13L-74.79,183.13z"/>
	</g>
	<g id="g266">
		<path id="path268" style="fill:#E5E5B2;" d="M-9.72,178.47c-1.67-2.51-2.98-4.26-3.63-4.67c-3.01-1.88,1.13-1.51,2.26-1.51
			l18.45,0.76c0,0,0.52,2.24,1.21,5.63C8.56,178.68-1.52,176.67-9.72,178.47z"/>
	</g>
	<g id="g270">
		<path id="path272" style="fill:#CC7226;" d="M43.88,40.32c27.72,3.96,53.24-31.68,55-41.36c1.76-9.68-8.36-21.56-8.36-21.56
			c1.32-3.08-3.52-17.16-8.8-26.4S60.54-57.27,43-58.24C27.16-59.12,8.68-35.8,7.36-34.04S12.2,6,13.52,11.72S12.2,43.84,12.2,43.84
			C46.44,34.74,16.16,36.36,43.88,40.32L43.88,40.32z"/>
	</g>
	<g id="g274">
		<path id="path276" style="fill:#EA8E51;" d="M8.09-33.39c-1.3,1.73,4.75,39.31,6.05,44.93s-1.3,31.54-1.3,31.54
			c32.67-8.88,3.89-7.34,31.1-3.46c27.22,3.89,52.27-31.1,54-40.61c1.73-9.5-8.21-21.17-8.21-21.17c1.3-3.02-3.46-16.85-8.64-25.92
			s-20.8-8.12-38.02-9.07C27.53-58.02,9.38-35.12,8.09-33.39z"/>
	</g>
	<g id="g278">
		<path id="path280" style="fill:#EFAA7C;" d="M8.82-32.74c-1.27,1.7,4.66,38.59,5.94,44.1c1.27,5.51-1.27,30.95-1.27,30.95
			c31.4-9.16,3.82-7.21,30.53-3.39c26.71,3.82,51.31-30.53,53-39.86c1.7-9.33-8.06-20.78-8.06-20.78
			c1.27-2.97-3.39-16.54-8.48-25.44s-20.41-7.97-37.31-8.9C27.9-56.91,10.09-34.44,8.82-32.74L8.82-32.74z"/>
	</g>
	<g id="g282">
		<path id="path284" style="fill:#F4C6A8;" d="M9.54-32.1c-1.25,1.66,4.58,37.86,5.82,43.27c1.25,5.41-1.25,30.37-1.25,30.37
			c29.44-9.04,3.74-7.07,29.95-3.33c26.21,3.74,50.34-29.95,52-39.1c1.66-9.15-7.9-20.39-7.9-20.39c1.25-2.91-3.33-16.22-8.32-24.96
			s-20.03-7.82-36.61-8.74C28.26-55.81,10.79-33.76,9.54-32.1z"/>
	</g>
	<g id="g286">
		<path id="path288" style="fill:#F9E2D3;" d="M10.27-31.45c-1.22,1.63,4.49,37.13,5.71,42.43s-1.22,29.78-1.22,29.78
			c27.87-8.92,3.67-6.94,29.38-3.26c25.71,3.67,49.37-29.38,51-38.35c1.63-8.98-7.75-19.99-7.75-19.99
			c1.22-2.86-3.26-15.91-8.16-24.48s-19.64-7.67-35.91-8.57C28.63-54.7,11.5-33.08,10.27-31.45L10.27-31.45z"/>
	</g>
	<g id="g290">
		<path id="path292" style="fill:#FFFFFF;" d="M44.2,36.8C69.4,40.4,92.6,8,94.2-0.8s-7.6-19.6-7.6-19.6c1.2-2.8-3.2-15.6-8-24
			s-19.25-7.51-35.2-8.4C29-53.6,12.2-32.4,11-30.8c-1.2,1.6,4.4,36.4,5.6,41.6S15.4,40,15.4,40C40.9,31.4,19,33.2,44.2,36.8z"/>
	</g>
	<g id="g294">
		<path id="path296" style="fill:#CCCCCC;" d="M90.6,2.8c0,0-27.8,7.6-39.4,6c0,0-15.8-6.6-24.6,15.2c0,0-3.6,7.2-5.6,9.2
			S90.6,2.8,90.6,2.8z"/>
	</g>
	<g id="g298">
		<path id="path300" d="M94.4,0.6c0,0-29,12.2-39,11.8c0,0-16.4-4.6-24.8,10c0,0-8.4,9.2-11.6,10.8c0,0-0.4,1.6,6-2.4L35.4,36
			c0,0,14.8,9.6,24.4-6.4c0,0,4-11.2,4-13.2s21.2-7.6,22.8-8C88.2,8,94.8,3.8,94.4,0.6L94.4,0.6z"/>
	</g>
	<g id="g302">
		<path id="path304" style="fill:#99CC32;" d="M47,36.51c-6.87,0-15.25-3.87-15.25-10.11c0-6.25,8.37-12.51,15.25-12.51
			c6.87,0,12.45,5.07,12.45,11.31C59.45,31.45,53.87,36.51,47,36.51z"/>
	</g>
	<g id="g306">
		<path id="path308" style="fill:#659900;" d="M43.38,19.83c-4.85,0.72-9.94,2.23-9.86,2.01c1.54-4.62,7.9-7.95,13.49-7.95
			c4.3,0,8.08,1.98,10.32,4.99C57.32,18.88,52,18.55,43.38,19.83z"/>
	</g>
	<g id="g310">
		<path id="path312" style="fill:#FFFFFF;" d="M55.4,19.6c0,0-4.4-3.2-4.4-1C51,18.6,54.6,23,55.4,19.6z"/>
	</g>
	<g id="g314">
		<path id="path316" d="M45.4,27.73c-2.5,0-4.53-2.03-4.53-4.53c0-2.5,2.03-4.52,4.53-4.52c2.5,0,4.53,2.03,4.53,4.52
			C49.93,25.7,47.9,27.73,45.4,27.73z"/>
	</g>
	<g id="g318">
		<path id="path320" style="fill:#CC7226;" d="M-58.6,14.4c0,0-3.2-21.2-0.8-25.6c0,0,10.8-10,10.4-13.6c0,0-0.4-18-1.6-18.8
			s-8.8-6.8-14.8-0.4c0,0-10.4,18-9.6,24.4v2c0,0-7.6-0.4-9.2,1.6c0,0-1.2,5.2-2.4,5.6c0,0-2.8,2.4-0.8,5.2c0,0-2,2.4-1.6,6.4l7.6,4
			c0,0,2,14.4,12.8,19.6C-63.76,27.13-60.6,20.4-58.6,14.4z"/>
	</g>
	<g id="g322">
		<path id="path324" style="fill:#FFFFFF;" d="M-59.6,12.56c0,0-2.88-19.08-0.72-23.04c0,0,9.72-9,9.36-12.24
			c0,0-0.36-16.2-1.44-16.92s-7.92-6.12-13.32-0.36c0,0-9.36,16.2-8.64,21.96v1.8c0,0-6.84-0.36-8.28,1.44c0,0-1.08,4.68-2.16,5.04
			c0,0-2.52,2.16-0.72,4.68c0,0-1.8,2.16-1.44,5.76l6.84,3.6c0,0,1.8,12.96,11.52,17.64C-64.25,24.02-61.4,17.96-59.6,12.56
			L-59.6,12.56z"/>
	</g>
	<g id="g326">
		<path id="path328" style="fill:#EB955C;" d="M-51.05-42.61c-1.09-0.86-8.58-6.63-14.43-0.39c0,0-10.14,17.55-9.36,23.79v1.95
			c0,0-7.41-0.39-8.97,1.56c0,0-1.17,5.07-2.34,5.46c0,0-2.73,2.34-0.78,5.07c0,0-1.95,2.34-1.56,6.24l7.41,3.9
			c0,0,1.95,14.04,12.48,19.11c4.71,2.27,7.8-4.29,9.75-10.14c0,0-3.12-20.67-0.78-24.96c0,0,10.53-9.75,10.14-13.26
			C-49.49-24.28-49.88-41.83-51.05-42.61L-51.05-42.61z"/>
	</g>
	<g id="g330">
		<path id="path332" style="fill:#F2B892;" d="M-51.5-41.62c-0.98-0.92-8.36-6.46-14.06-0.38c0,0-9.88,17.1-9.12,23.18v1.9
			c0,0-7.22-0.38-8.74,1.52c0,0-1.14,4.94-2.28,5.32c0,0-2.66,2.28-0.76,4.94c0,0-1.9,2.28-1.52,6.08l7.22,3.8
			c0,0,1.9,13.68,12.16,18.62c4.59,2.21,7.6-4.18,9.5-9.88c0,0-3.04-20.14-0.76-24.32c0,0,10.26-9.5,9.88-12.92
			C-49.98-23.76-50.36-40.86-51.5-41.62L-51.5-41.62z"/>
	</g>
	<g id="g334">
		<path id="path336" style="fill:#F8DCC8;" d="M-51.95-40.63c-0.87-0.98-8.14-6.29-13.69-0.37c0,0-9.62,16.65-8.88,22.57v1.85
			c0,0-7.03-0.37-8.51,1.48c0,0-1.11,4.81-2.22,5.18c0,0-2.59,2.22-0.74,4.81c0,0-1.85,2.22-1.48,5.92l7.03,3.7
			c0,0,1.85,13.32,11.84,18.13c4.47,2.15,7.4-4.07,9.25-9.62c0,0-2.96-19.61-0.74-23.68c0,0,9.99-9.25,9.62-12.58
			C-50.47-23.24-50.84-39.89-51.95-40.63L-51.95-40.63z"/>
	</g>
	<g id="g338">
		<path id="path340" style="fill:#FFFFFF;" d="M-59.6,12.46c0,0-2.88-18.98-0.72-22.94c0,0,9.72-9,9.36-12.24
			c0,0-0.36-16.2-1.44-16.92c-0.76-1.04-7.92-6.12-13.32-0.36c0,0-9.36,16.2-8.64,21.96v1.8c0,0-6.84-0.36-8.28,1.44
			c0,0-1.08,4.68-2.16,5.04c0,0-2.52,2.16-0.72,4.68c0,0-1.8,2.16-1.44,5.76l6.84,3.6c0,0,1.8,12.96,11.52,17.64
			C-64.25,24.02-61.4,17.86-59.6,12.46L-59.6,12.46z"/>
	</g>
	<g id="g342">
		<path id="path344" style="fill:#CCCCCC;" d="M-62.7,6.2c0,0-21.6-10.2-22.5-11c0,0,9.1,8.2,9.9,8.2S-62.7,6.2-62.7,6.2z"/>
	</g>
	<g id="g346">
		<path id="path348" d="M-79.8,0c0,0,18.4,3.6,18.4,8c0,2.91-0.24,16.33-5.6,14.8C-75.4,20.4-71.8,6-79.8,0z"/>
	</g>
	<g id="g350">
		<path id="path352" style="fill:#99CC32;" d="M-71.4,3.8c0,0,8.98,1.47,10,4.2c0.6,1.6,1.26,9.91-4.2,11
			C-70.15,19.91-72.38,9.69-71.4,3.8z"/>
	</g>
	<g id="g354">
		<path id="path356" d="M14.6,46.35c-0.5-1.74,0.81-1.61,2.61-2.15c2-0.6,14.2-4.4,15-7c0.8-2.6,14,1.8,14,1.8
			c1.8,0.8,6.2,3.4,6.2,3.4c4.8,1.2,11.4,1.6,11.4,1.6c2.4,1,5.8,3.8,5.8,3.8c14.6,10.2,27,3,27,3c20-6.6,14-23.8,14-23.8
			c-3-9,0.2-12.4,0.2-12.4c0.2-3.8,7.4,2.6,7.4,2.6c2.6,4.2,3.4,9.2,3.4,9.2c8,11.2,4.6-6.6,4.6-6.6c0.2-1-2.6-4.6-2.6-5.8
			s-1.8-4.6-1.8-4.6C118.8,6,121.2-1,121.2-1c1.8-13.8-0.4-12-0.4-12c-1.2-1.8-10.4,8.2-10.4,8.2c-2.2,3.4-8.2,5-8.2,5
			C99.4,2,96,0.6,96,0.6c-2.6-0.4-8.2,6.6-8.2,6.6c2.8-0.2,5.2,4.2,7.6,4.4s4.2-2.4,5.8-3c1.6-0.6,4.4,5.2,4.4,5.2
			c0.4,2.6-5.2,7.4-5.2,7.4c-0.4,4.6-2,3-2,3c-3-0.6-4.2,3.2-5.2,7.8S88,37,88,37c-1.6,7.4-2.8,4.4-2.8,4.4C85,35.8,79,41.6,79,41.6
			c-1.2,2-5.8-0.2-5.8-0.2c-6.8-2-4.4-4-4.4-4c1.8-2.2,13,0,13,0c2.2-1.6-5.8-5.6-5.8-5.6c-0.6-1.8,0.4-6.2,0.4-6.2
			c1.2-3.2,8-8.8,8-8.8C93.8,15.6,91,14,91,14c-6.2-5.2-12,2.4-12,2.4c-2.2,6.2-19.6,21.2-19.6,21.2c-4.8,3.4-2.2-3.4-6.2,0
			S28.6,32,28.6,32c-11.56-1.19-14.29,14.55-17.82,11.43C10.78,43.43,16.2,51.95,14.6,46.35L14.6,46.35z"/>
	</g>
	<g id="g358">
		<path id="path360" d="M209.4-120c0,0-25.6,8-28.4,26.8c0,0-2.4,22.8,18,40.4c0,0,0.4,6.4,2.4,9.6c0,0-1.6,4.8,17.2-2.8l27.2-8.4
			c0,0,6.4-2.4,11.6-11.2c5.2-8.8,20.4-27.6,16.8-52.8c0,0,1.2-11.2-4.8-11.6c0,0-8.4-1.6-15.6,6c0,0-6.8,3.2-9.2,2.8L209.4-120z"/>
	</g>
	<g id="g362">
		<path id="path364" d="M264.02-120.99c0,0,2.1-8.93-2.74-4.09c0,0-7.04,5.72-14.52,5.72c0,0-14.52,2.2-18.92,15.4
			c0,0-3.96,26.84,3.96,32.56c0,0,4.84,7.48,11.88,0.88C250.72-77.12,266.22-107.35,264.02-120.99L264.02-120.99z"/>
	</g>
	<g id="g366">
		<path id="path368" style="fill:#323232;" d="M263.65-120.63c0,0,2.09-8.75-2.66-3.99c0,0-6.92,5.61-14.26,5.61
			c0,0-14.26,2.16-18.58,15.12c0,0-3.89,26.35,3.89,31.97c0,0,4.75,7.34,11.66,0.86C250.62-77.54,265.81-107.24,263.65-120.63
			L263.65-120.63z"/>
	</g>
	<g id="g370">
		<path id="path372" style="fill:#666666;" d="M263.27-120.27c0,0,2.08-8.56-2.58-3.9c0,0-6.78,5.51-13.99,5.51
			c0,0-14,2.12-18.24,14.84c0,0-3.81,25.87,3.82,31.38c0,0,4.66,7.21,11.45,0.85C250.51-77.95,265.39-107.13,263.27-120.27z"/>
	</g>
	<g id="g374">
		<path id="path376" style="fill:#999999;" d="M262.9-119.92c0,0,2.07-8.37-2.51-3.79c0,0-6.65,5.41-13.73,5.41
			c0,0-13.72,2.08-17.88,14.56c0,0-3.75,25.37,3.74,30.78c0,0,4.58,7.07,11.23,0.83C250.41-78.37,264.98-107.02,262.9-119.92
			L262.9-119.92z"/>
	</g>
	<g id="g378">
		<path id="path380" style="fill:#CCCCCC;" d="M262.53-119.56c0,0,2.06-8.18-2.43-3.7c0,0-6.53,5.31-13.47,5.31
			c0,0-13.46,2.04-17.54,14.28c0,0-3.67,24.89,3.67,30.19c0,0,4.49,6.94,11.02,0.82C250.3-78.78,264.57-106.91,262.53-119.56z"/>
	</g>
	<g id="g382">
		<path id="path384" style="fill:#FFFFFF;" d="M262.15-119.2c0,0,2.05-8-2.35-3.6c0,0-6.4,5.2-13.2,5.2c0,0-13.2,2-17.2,14
			c0,0-3.6,24.4,3.6,29.6c0,0,4.4,6.8,10.8,0.8S264.15-106.8,262.15-119.2z"/>
	</g>
	<g id="g386">
		<path id="path388" style="fill:#992600;" d="M50.6,84c0,0-20.4-19.2-28.4-20c0,0-34.4-4-49.2,14c0,0,17.6-20.4,45.2-14.8
			c0,0-21.6-4.4-34-1.2l-26.4,14l-2.8,4.8c0,0,4-14.8,22.4-20.8c0,0,22.8-4.8,33.6,0c0,0-21.6-6.8-31.6-4.8c0,0-30.4-2.4-43.2,24
			c0,0,4-14.4,18.8-21.6c0,0,13.6-8.8,34-6c0,0,14.4,3.2,19.6,5.6s4-0.4-4.4-5.2c0,0-5.6-10-19.6-9.6c0,0-42.8,3.6-53.2,15.6
			c0,0,13.6-11.2,24-14c0,0,22.4-8,30.8-7.2c0,0,24.8,1,32.4-3c0,0-11.2,5-8,8.2s10,10.8,10,12s24.2,23.3,27.8,27.7
			C48.4,81.7,50.6,84,50.6,84z"/>
	</g>
	<g id="g390">
		<path id="path392" style="fill:#CCCCCC;" d="M189,278c0,0-15.5-36.5-28-46c0,0,26,16,29.5,34C190.5,266,190.5,276,189,278z"/>
	</g>
	<g id="g394">
		<path id="path396" style="fill:#CCCCCC;" d="M236,285.5c0,0-26.5-55-45-79c0,0,43.5,37.5,48.5,64l0.5,5.5l-3-2.5
			C237,273.5,236.5,282.5,236,285.5z"/>
	</g>
	<g id="g398">
		<path id="path400" style="fill:#CCCCCC;" d="M292.5,237c0,0-62.5-59.5-64-62c0,0,60.5,66,63.5,73.5C292,248.5,290,239.5,292.5,237
			z"/>
	</g>
	<g id="g402">
		<path id="path404" style="fill:#CCCCCC;" d="M104,280.5c0,0,19.5-52,38.5-29.5c0,0,15,10,14.5,13c0,0-4-6.5-22-6
			C135,258,116,255,104,280.5z"/>
	</g>
	<g id="g406">
		<path id="path408" style="fill:#CCCCCC;" d="M294.5,153c0,0-45-28.5-52.5-30c-11.81-2.36,49.5,29,54.5,39.5
			C296.5,162.5,298.5,160,294.5,153z"/>
	</g>
	<g id="g410">
		<path id="path412" d="M143.8,259.6c0,0,20.4-2,27.2-8.8l4.4,3.6L193,216l3.6,5.2c0,0,14.4-14.8,13.6-22.8c-0.8-8,12.8,6,12.8,6
			s-0.8-11.6,6.4-4.8c0,0-2.4-15.6,6-7.6c0,0-10.54-30.16,12-4.4c5.6,6.4,1.2-0.4,1.2-0.4s-26-48-4.4-33.6c0,0,2-22.8,0.8-27.2
			c-1.2-4.4-3.2-26.8-8-32s0.4-6.8,6-1.6c0,0-11.2-24,2-12c0,0-3.6-15.2-8-18c0,0-5.6-17.2,9.6-6.4c0,0-4.4-12.4-7.6-15.6
			c0,0-11.6-27.6-4.4-22.8l4.4,3.6c0,0-6.8-14-0.4-9.6s6.4,4,6.4,4s-21.2-33.2-0.8-15.6c0,0-8.16-13.92-11.6-20.8
			c0,0-18.8-20.4-4.4-14l4.8,1.6c0,0-8.8-10-16.8-11.6s2.4-8,8.8-6c6.4,2,22,9.6,22,9.6s12.8,18.8,16.8,19.2c0,0-20-7.6-14,0.4
			c0,0,14.4,14,7.2,13.6c0,0-6,7.2-1.2,16c0,0-18.46-18.39-3.6,7.2L259,32c0,0-24.4-24.8-13.2-2.8c0,0,17.2,23.6,19.2,24
			s6.4,9.2,6.4,9.2l-4.4-2l5.2,8.8c0,0-11.2-12-5.2,1.2l5.6,14.4c0,0-20.4-22-6.8,7.6c0,0-16.4-5.2-7.6,12c0,0-1.6,16-1.2,21.2
			c0.4,5.2,1.6,33.6-2.8,41.6c-4.4,8,6,27.2,8,31.2c2,4,5.6,14.8-3.2,5.6c-8.8-9.2-4.4-3.6-2.4,5.2c2,8.8,8,24.4,7.2,30
			c0,0-1.2,1.2-4.4-2.4c0,0-14.8-22.8-13.2-8.4c0,0-1.2,8-4.4,16.8c0,0-3.2,10.8-3.2,2c0,0-3.2-16.8-6-9.2s-6.4,13.6-9.2,16
			c-2.8,2.4-8-20.4-9.2-10c0,0-12-12.4-16.8,4l-11.6,16.4c0,0-0.4-12.4-1.6-6.4C184.2,258,154.2,264,143.8,259.6L143.8,259.6z"/>
	</g>
	<g id="g414">
		<path id="path416" d="M109.4-97.2c0,0-11.6-8-15.6-7.6s27.6-8.8,68.8,18.8c0,0,4.8,2.8,8.4,2.4c0,0,3.2,2.4,0.4,6
			c0,0-8.8,9.6,2.4,20.8c0,0,18.4,6.8,12.8-2c0,0,10.8,4,13.2,8c2.4,4,1.2,0,1.2,0l-12.4-12.4c0,0-5.2-2-8-10.4s-5.2-18.4-0.8-21.6
			c0,0-4,4.4-3.2,0.4c0.8-4,4.4-7.6,6-8s18-16.2,24.8-16.6c0,0-9.2,1.4-12.2,0.4s-29.6-12.4-35.6-13.6c0,0-16.8-6.6-4.8-4.6
			c0,0,35.8,3.8,54,17c0,0-7.2-8.4-25.6-15.4c0,0-22.2-12.6-57.4-7.6c0,0-17.8,3.2-25.6,5c0,0-2.6-0.6-3.2-1s-12.4-9.4-40-2.4
			c0,0-17,4.6-25.6,9.4c0,0-15.2,1.2-18.8,4.4c0,0-18.6,14.6-20.6,15.4s-13.4,8.4-14.2,8.8c0,0,24.6-6.6,27-9s19.8-5,22.2-3.6
			s10.8,0.8,1.2,1.4c0,0,75.6,14.8,76.4,16.8C105.4-96,109.4-97.2,109.4-97.2L109.4-97.2z"/>
	</g>
	<g id="g418">
		<path id="path420" style="fill:#CC7226;" d="M180.8-106.4c0,0-10.2-7.4-12.2-7.4s-14.4-10.2-18.6-9.8s-16.4-9.6-43.8-1.4
			c0,0-0.6-2,3-2.8c0,0,6.4-2.2,6.8-2.8c0,0,20.2-4.2,27.4-0.6c0,0,9.2,2.6,15.4,8.8c0,0,11.2,3.2,14.4,2.2c0,0,8.8,2.2,9.2,4
			c0,0,5.8,3,4,5.6C186.4-110.6,186.8-109,180.8-106.4L180.8-106.4z"/>
	</g>
	<g id="g422">
		<path id="path424" style="fill:#CC7226;" d="M168.33-108.51c0.81,0.63,1.83,0.73,2.43,1.54c0.24,0.31-0.05,0.64-0.37,0.74
			c-1.04,0.31-2.1-0.26-3.24,0.33c-0.4,0.21-1.04,0.03-1.6-0.12c-1.63-0.44-3.46-0.47-5.15,0.22c-1.98-1.13-4.34-0.54-6.42-1.55
			c-0.06-0.02-0.28,0.32-0.36,0.3c-3.04-1.15-6.79-0.87-9.22-3.15c-2.43-0.41-4.78-0.87-7.21-1.55c-1.82-0.51-3.23-1.5-4.85-2.33
			c-1.38-0.71-2.83-1.23-4.37-1.61c-1.86-0.45-3.69-0.34-5.58-0.86c-0.1-0.02-0.29,0.32-0.37,0.3c-0.32-0.11-0.62-0.69-0.79-0.64
			c-1.68,0.52-3.17-0.45-4.83-0.11c-1.18-1.22-2.9-0.98-4.45-1.42c-2.97-0.85-6.12,0.42-9.15-0.58c4.11-1.84,8.8-0.61,12.86-2.68
			c2.33-1.18,4.99-0.08,7.56-0.84c0.49-0.15,1.18-0.35,1.58,0.32c0.14-0.14,0.32-0.37,0.38-0.35c2.44,1.16,4.76,2.43,7.24,3.5
			c0.34,0.15,0.88-0.09,1.13,0.12c1.52,1.21,3.46,1.11,4.85,2.33c1.7-0.5,3.49-0.12,5.22-0.75c0.08-0.02,0.31,0.32,0.34,0.3
			c1.14-0.75,2.29-0.48,3.18-0.18c0.34,0.12,1,0.37,1.31,0.44c1.12,0.27,1.98,0.75,3.16,0.94c0.11,0.02,0.3-0.32,0.37-0.3
			c1.12,0.44,2.16,0.39,2.82,1.55c0.14-0.14,0.3-0.37,0.38-0.35c1.03,0.34,1.68,1.1,2.78,1.34c0.48,0.1,1.1,0.73,1.67,0.91
			c2.39,0.73,4.24,2.26,6.43,3.15C166.82-109.24,167.7-109,168.33-108.51L168.33-108.51z"/>
	</g>
	<g id="g426">
		<path id="path428" style="fill:#CC7226;" d="M91.7-122.74c-2.52-1.72-4.89-2.83-7.33-4.62c-0.18-0.13-0.54,0.04-0.74-0.08
			c-1.01-0.61-1.89-1.19-2.88-1.89c-0.54-0.38-1.36-0.37-1.87-0.63c-2.54-1.29-5.17-1.85-7.68-3.04c0.68-0.64,1.8-0.39,2.4-1.2
			c0.19,0.28,0.43,0.56,0.79,0.37c1.68-0.9,3.53-1.05,5.2-0.96c1.7,0.09,3.42,0.39,5.2,0.67c0.31,0.04,0.51,0.56,0.83,0.66
			c2.23,0.66,4.62,0.14,6.74,0.98c1.59,0.63,3.16,1.45,4.4,2.72c0.25,0.26-0.07,0.57-0.35,0.76c0.39-0.11,0.66,0.1,0.77,0.41
			c0.08,0.24,0.08,0.54,0,0.78c-0.11,0.31-0.39,0.41-0.76,0.46c-1.41,0.19,0.36-1.19-0.33-0.74c-1.27,0.82-0.53,2.22-1.27,3.49
			c-0.28-0.19-0.51-0.41-0.4-0.8c0.23,0.52-0.37,0.81-0.54,1.13C93.48-123.55,92.58-122.13,91.7-122.74L91.7-122.74z"/>
	</g>
	<g id="g430">
		<path id="path432" style="fill:#CC7226;" d="M59.2-115.39c-3.15-0.79-6.2-0.68-9.22-1.96c-0.07-0.02-0.29,0.32-0.35,0.3
			c-1.37-0.6-2.28-1.56-3.36-2.61c-0.91-0.89-2.57-0.5-3.85-0.99c-0.32-0.12-0.53-0.63-0.83-0.67c-1.22-0.16-2.15-1.11-3.19-1.68
			c2.34-0.8,4.75-0.76,7.21-1.15c0.11-0.02,0.26,0.31,0.39,0.31c0.14,0,0.27-0.23,0.4-0.36c0.19,0.28,0.5,0.61,0.75,0.35
			c0.55-0.54,1.1-0.35,1.64-0.31c0.14,0.01,0.27,0.32,0.4,0.32c0.14,0,0.27-0.32,0.4-0.32c0.14,0,0.27,0.32,0.4,0.32
			c0.14,0,0.27-0.23,0.4-0.36c0.69,0.78,1.58,0.23,2.4,0.41c1.04,0.22,1.31,1.37,2.38,1.67c4.72,1.3,8.85,3.45,13.22,5.54
			c0.31,0.14,0.52,0.39,0.41,0.78c0.27,0,0.58-0.09,0.77,0.04c1.06,0.74,2.1,1.28,2.8,2.38c0.22,0.34-0.11,0.75-0.35,0.7
			C67.59-113.68,63.59-114.29,59.2-115.39z"/>
	</g>
	<g id="g434">
		<path id="path436" style="fill:#CC7226;" d="M45.34-71.18c-1.59-1.22-2.18-3.25-3.3-5.04c-0.21-0.34,0.06-0.65,0.38-0.74
			c0.56-0.16,1.1,0.32,1.51,0.52c1.74,0.86,3.28,2.1,5.28,2.24c1.99,2.23,6.25,2.62,6.26,6c0,0.86-1.43-0.06-1.86,0.8
			c-2.45-1-4.84-0.9-7.22-2.37C45.76-70.15,46.09-70.6,45.34-71.18L45.34-71.18z"/>
	</g>
	<g id="g438">
		<path id="path440" style="fill:#CC7226;" d="M17.8-123.76c0.14,0,7.17,0.24,7.15,0.35c-0.05,0.31-7.77,1.36-8.14,1.19
			C16.65-122.3,9.13-119.87,9-120C9.27-120.14,17.53-123.76,17.8-123.76z"/>
	</g>
	<g id="g442">
		<path id="path444" d="M33.2-114c0,0-14.8,1.8-19.2,3s-23,8.8-26,10.8c0,0-13.4,5.4-30.4,25.4c0,0,7.6-3.4,9.8-6.2
			c0,0,13.6-12.6,13.4-10c0,0,12.2-8.6,11.6-6.4c0,0,24.4-11.2,22.4-8c0,0,21.6-4.6,20.6-2.6c0,0,18.8,4.4,16,4.6
			c0,0-5.8,1.2,0.6,4.8c0,0-3.4,4.4-8.8,0.4c-5.4-4-2.4-1.8-7.4-0.8c0,0-2.6,0.8-7.2-3.2c0,0-5.6-4.6-14.4-1
			c0,0-30.6,12.6-32.6,13.2c0,0-3.6,2.8-6,6.4c0,0-5.8,4.4-8.8,5.8c0,0-12.8,11.6-14,13c0,0-3.4,5.2-4.2,5.6c0,0,6.4-3.8,8.4-5.8
			c0,0,14-10,19.4-10.8c0,0,4.4-3,5.2-4.4c0,0,14.4-9.2,18.6-9.2c0,0,9.2,5.2,11.6-1.8c0,0,5.8-1.8,11.4-0.6c0,0,3.2-2.6,2.4-4.8
			c0,0,1.6-1.8,2.6,2c0,0,3.4,3.6,8.2,1.6c0,0,4-0.2,2,2.2c0,0-4.4,3.8-16.2,4c0,0-12.4,0.6-28.8,8.2c0,0-29.8,10.4-39,20.8
			c0,0-6.4,8.8-11.8,10c0,0-5.8,0.8-11.8,8.2c0,0,9.8-5.8,18.8-5.8c0,0,4-2.4,0.2,1.2c0,0-3.6,7.6-2,13c0,0-0.6,5.2-1.4,6.8
			c0,0-7.8,12.8-7.8,15.2S-60.2,3-59.8,3.6s-1-1.6,2.8,0.8s6.6,4,7.4,6.8s-2-5.4-2.2-7.2s-4.4-9-3.6-11.4c0,0,1,1,1.8,2.4
			c0,0-0.6-0.6,0-4.2c0,0,0.8-5.2,2.2-8.4s3.4-7,3.8-7.8s0.4-6.6,1.8-4l3.4,2.6c0,0-2.8-2.6-0.6-4.8c0,0-1-5.6,0.8-8.2
			c0,0,7-8.4,8.6-9.4c1.6-1,0.2-0.6,0.2-0.6s6-4.2,0.2-2.6c0,0-4,1.6-7,1.6c0,0-7.6,2-3.6-2.2s14-9.6,17.8-9.4l0.8,1.6l11.2-2.4
			l-1.2,0.8c0,0-0.2-0.2,4-0.6s10,1,11.4-0.8c1.4-1.8,4.8-2.8,4.4-1.4C4.2-63.8,4-61.8,4-61.8s5-5.8,4.4-3.6
			C7.8-63.2-0.4-58-1.8-51.8L8.6-60l3.6-3c0,0,3.6,2.2,3.8,0.6c0.2-1.6,4.8-7.4,6-7.2s3.2-2.6,3,0s7.4,8,7.4,8s3.2-1.8,4.6-0.4
			s5.6-19.8,5.6-19.8l25-10.6l43.6-3.4l-17-6.8L33.2-114L33.2-114z"/>
	</g>
	<g id="g446">
		<path id="path448" style="fill:none;stroke:#4C0000;stroke-width:2;" d="M51.4,85c0,0-15-16.8-23.4-19.4c0,0-13.4-6.8-38,1"/>
	</g>
	<g id="g450">
		<path id="path452" style="fill:none;stroke:#4C0000;stroke-width:2;" d="M24.8,64.2c0,0-25.2-8-40.6-3.8c0,0-18.4,2-26.8,15.8"/>
	</g>
	<g id="g454">
		<path id="path456" style="fill:none;stroke:#4C0000;stroke-width:2;" d="M21.2,63c0,0-17-7.2-31.8-9.4c0,0-16.6-2.6-33.2,4.6
			c0,0-12.2,6-17.6,16.2"/>
	</g>
	<g id="g458">
		<path id="path460" style="fill:none;stroke:#4C0000;stroke-width:2;" d="M22.2,63.4c0,0-15.4-11-16.4-12.4c0,0-7-11-20-11.4
			c0,0-21.4,0.8-38.6,8.8"/>
	</g>
	<g id="g462">
		<path id="path464" d="M20.9,54.41C22.44,55.87,49.4,84.8,49.4,84.8c35.2,36.6,7.2,2.4,7.2,2.4C49,82.4,39.8,63.6,39.8,63.6
			c-1.2-2.8,14,7.2,14,7.2c4,0.8,17.6,20,17.6,20c-6.8-2.4-2,4.8-2,4.8c2.8,2,23.2,17.6,23.2,17.6c3.6,4,7.6,5.6,7.6,5.6
			c14-5.2,7.6,8,7.6,8c2.4,6.8,8-4.8,8-4.8c11.2-16.8-5.2-14.4-5.2-14.4c-30,2.8-36.8-13.2-36.8-13.2c-2.4-2.4,6.4,0,6.4,0
			C88.6,96.4,73,82,73,82c2.4,0,11.6,6.8,11.6,6.8C95,98,97,96,97,96c18-8.8,28.4-1.2,28.4-1.2c2,1.6-3.6,8.4-2,13.6
			s6.4,17.6,6.4,17.6c-2.4,1.6-2,12.4-2,12.4c16.8,23.2,7.2,21.2,7.2,21.2c-15.6-0.4-0.8,7.2-0.8,7.2c3.2,2,12,9.2,12,9.2
			c-2.8-1.2-4.4,4-4.4,4c4.8,4,2,8.8,2,8.8c-6,1.2-7.2,5.2-7.2,5.2c6.8,8-3.2,8.4-3.2,8.4c3.6,4.4-1.2,16.4-1.2,16.4
			c-4.8,0-11.2,5.6-11.2,5.6c2.4,4.8-8,10.4-8,10.4c-8.4,1.6-5.6,8.4-5.6,8.4c-8,6-10.4,22-10.4,22c-0.8,10.4-3.2,13.6,2,11.6
			c5.2-2,4.4-14.4,4.4-14.4c-4.8-15.6,38-31.6,38-31.6c4-1.6,4.8-6.8,4.8-6.8c2,0.4,10.8,8,10.8,8c7.6,11.2,8,2,8,2
			c1.2-3.6-0.4-9.6-0.4-9.6c6-21.6-8-28-8-28c-10-33.6,4-25.2,4-25.2c2.8,5.6,13.6,10.8,13.6,10.8l3.6-2.4
			c-1.6-4.8,6.8-10.8,6.8-10.8c2.8,6.4,8.8-1.6,8.8-1.6c3.6-24.4,16-10,16-10c4,1.2,5.2-5.6,5.2-5.6c3.6-10.4,0-24,0-24
			c3.6-0.4,13.2,5.6,13.2,5.6c2.8-3.6-6.4-20.4-2.4-18s8.4,4,8.4,4c0.8-2-9.2-14.4-9.2-14.4c-4.4-2.8-9.6-23.2-9.6-23.2
			c7.2,3.6-2.8-11.6-2.8-11.6c0-3.2,6-14.4,6-14.4c-0.8-6.8,0-6.4,0-6.4c2.8,1.2,10.8,2.8,4-3.6s0.8-11.2,0.8-11.2
			c4.4-2.8-9.2-2.4-9.2-2.4c-5.2-4.4-4.8-8.4-4.8-8.4c8,2-6.4-12.4-8.8-16c-2.4-3.6,7.2-8.8,7.2-8.8C220.6-4.8,209-8,209-8
			c-19.6,0.4-8.8-10.4-8.8-10.4c6,0.4,4.4-2,4.4-2c-5.2-1.2-14.8-7.6-14.8-7.6c-4-3.6-0.4-2.8-0.4-2.8c16.8,1.2-12-10-12-10
			c8,0-10-10.4-10-10.4c-2-1.6-5.2-9.2-5.2-9.2c-6-5.2-10.8-12-10.8-12c-0.4-4.4-5.2-9.2-5.2-9.2C134.6-95.2,129-94.8,129-94.8
			c-14.8-3.6-20-2.8-20-2.8l-52.8,4.4C29.8-80.4,37.6-59.4,37.6-59.4c6.4,8.4,15.6,4.6,15.6,4.6c4.6-6.2,16.2-4,16.2-4
			c20.4,3.2,17.8-0.4,17.8-0.4C84.8-63.8,68.6-70,68.4-70.6s-9-4-9-4C56.4-75.8,52-85,52-85c-3.2-3.4,12.6,2.4,12.6,2.4
			c-1.2,1,6.2,5,6.2,5c17.4-1,28,9.8,28,9.8c10.8,16.6,11,8.4,11,8.4c2.8-9.4-9-30.6-9-30.6c0.4-2,8.6,4.6,8.6,4.6
			c1.4-2,2.2,3.8,2.2,3.8c0.2,2.4,4,10.4,4,10.4c2.8,13,6.4,5.6,6.4,5.6l4.6,9.4C128-53.6,122-46,122-46c-0.2,2.8,0.6,2.6-5,10.2
			s-2.2,12-2.2,12c-1.4,6.6,7.4,6.2,7.4,6.2c2.6,2.2,6,2.2,6,2.2c1.8,2,4.2,1.4,4.2,1.4c1.6-3.8,7.8-1.8,7.8-1.8
			c1.4-2.4,9.6-2.8,9.6-2.8c1-2.6,1.4-4.2,4.8-4.8C158-24,133.4-67,133.4-67c6.4-0.8-1.8-13.2-1.8-13.2c-2.2-6.6,9.2,8,11.4,9.4
			s3.2,3.6,1.6,3.4s-3.4,2-2,2.2S157-50,160.4-39.8s9.4,14.2,15.6,20.2s5.4,30.2,5.4,30.2C181,19.4,187,30,187,30
			c2,3.8-2.2,22-2.2,22c-2,2.2-0.6,3-0.6,3c1,1.2,7.8,14.4,7.8,14.4c-1.8-0.2,1.8,3.4,1.8,3.4c5.2,6-1.2,3-1.2,3c-6-1.6,1,8.2,1,8.2
			c1.2,1.8-7.8-2.8-7.8-2.8c-9.2-0.6,2.4,6.6,2.4,6.6c8.6,7.2-2.8,2.8-2.8,2.8c-4.6-1.8-1.4,5-1.4,5c3.2,1.6,20.4,8.6,20.4,8.6
			c0.4,3.8-2.6,8.8-2.6,8.8c0.4,4-1.8,7.4-1.8,7.4c-1.2,8.2-1.8,9-1.8,9c-4.2,0.2-11.6,14-11.6,14c-1.8,2.6-12,14.6-12,14.6
			c-2,7-20-0.2-20-0.2c-6.6,3.4-4.6,0-4.6,0c-0.4-2.2,4.4-8.2,4.4-8.2c7-2.6,4.4-13.4,4.4-13.4c4-1.4-7.2-4.2-7-5.4s6-2.6,6-2.6
			c8-2,3.6-4.4,3.6-4.4c-0.6-4,2.4-9.6,2.4-9.6c11.6-0.8,0-17,0-17C153,89.6,152,83.8,152,83.8c12.6-8.2,4.4-20.6,4.6-24.2
			s1.4-25.2,1.4-25.2c-2-6.2-5-19.8-5-19.8c2.2-5.2,9.6-17.8,9.6-17.8c2.8-4.2,11.6-9,9.4-12s-10-1.2-10-1.2
			c-7.8-1.4-7.2,3.8-7.2,3.8c-1.6,1-2.4,6-2.4,6c-0.72,7.93-9.6,14.2-9.6,14.2c-11.2,6.2-2,10.2-2,10.2c6,6.6-3.8,6.8-3.8,6.8
			c-11-1.8-2.8,8.4-2.8,8.4C145,45.8,142,48.6,142,48.6c-10.2,1,2.4,10.2,2.4,10.2s-0.8-2-0.6-0.2s3.2,6,4,8s-3.2,2.2-3.2,2.2
			c0.6,9.6-14.8,5.4-14.8,5.4l-1.6,0.2c-1.6,0.2-12.8-0.6-18.6-2.8S97,69.4,97,69.4s-4,1.8-11.6,1.6c-7.6-0.2-15.6,2.6-15.6,2.6
			c-4.4-0.4,4.2-4.8,4.4-4.6s5.8-5.4-2.2-4.8c-21.8,1.64-32.6-8.6-32.6-8.6c-2-1.4-4.6-4.2-4.6-4.2c-10-2,1.4,12.4,1.4,12.4
			c1.2,1.4-0.2,2.4-0.2,2.4c-0.8-1.6-8.6-7-8.6-7C24.59,58.23,23.23,56.89,20.9,54.41L20.9,54.41z"/>
	</g>
	<g id="g466">
		<path id="path468" style="fill:#4C0000;" d="M-3,42.8c0,0,11.6,5.6,14.2,8.4c2.6,2.8,16.6,14.2,16.6,14.2s-5.4-2-8-3.8
			s-13.4-10-13.4-10S2.6,45.6-3,42.8z"/>
	</g>
	<g id="g470">
		<path id="path472" style="fill:#99CC32;" d="M-61.01,11.6c0.34-0.15-0.19-2.86-0.39-3.4c-1.02-2.73-10-4.2-10-4.2
			c-0.23,1.37-0.28,2.96-0.18,4.6C-71.58,8.6-66.71,14.12-61.01,11.6z"/>
	</g>
	<g id="g474">
		<path id="path476" style="fill:#659900;" d="M-61.01,11.4c-0.45,0.16-0.01-2.73-0.19-3.2c-1.02-2.73-10.2-4.3-10.2-4.3
			c-0.23,1.37-0.28,2.96-0.18,4.6C-71.58,8.5-67.31,13.62-61.01,11.4z"/>
	</g>
	<g id="g478">
		<path id="path480" d="M-65.4,11.55c-0.62,0-1.13-1.14-1.13-2.55c0-1.41,0.51-2.55,1.13-2.55S-64.27,7.6-64.27,9
			C-64.27,10.41-64.78,11.55-65.4,11.55L-65.4,11.55z"/>
	</g>
	<g id="g482">
		<path id="path484" d="M-65.4,9"/>
	</g>
	<g id="g486">
		<path id="path488" d="M-111,109.6c0,0-5.6,10,19.2,4c0,0,14-1.2,16.4-3.6c1.2,0.8,9.57,3.73,12.4,4.4c6.8,1.6,15.2-8.4,15.2-8.4
			s4.6-10.5,7.4-10.5s-0.4,1.6-0.4,1.6s-6.6,10.1-6.2,11.7c0,0-5.2,20-21.2,20.8c0,0-16.15,0.95-14.8,6.8c0,0,8.8-2.4,11.2,0
			c0,0,10.8-0.4,2.8,6l-6.8,11.6c0,0,0.14,3.92-10,0.4c-9.8-3.4-20.1-16.3-20.1-16.3S-121.85,123.55-111,109.6L-111,109.6z"/>
	</g>
	<g id="g490">
		<path id="path492" style="fill:#E59999;" d="M-112.2,113.6c0,0-2,9.6,34.8-0.8l6.8,0.8c2.4,0.8,14.4,3.6,16.4,2.4
			c0,0-7.2,13.6-18.8,12c0,0-13.2,1.6-12.8,6.4c0,0,4,7.2,8.8,9.6c0,0,2.8,2.4,2.4,5.6s-3.2,4.8-5.2,5.6s-5.2-2.4-6.8-2.4
			s-10-6.4-14.4-11.2c-4.4-4.8-12.8-16.8-12.4-19.6S-112.2,113.6-112.2,113.6L-112.2,113.6z"/>
	</g>
	<g id="g494">
		<path id="path496" style="fill:#B26565;" d="M-109,131.05c2.6,3.95,5.8,8.15,8,10.55c4.4,4.8,12.8,11.2,14.4,11.2s4.8,3.2,6.8,2.4
			s4.8-2.4,5.2-5.6S-77,144-77,144c-3.07-1.53-5.81-5.02-7.39-7.35c0,0,0.18,2.55-5.01,1.75s-10.4-3.6-12-6.8s-4-5.6-2.4-2
			s4,7.2,5.6,7.6c1.6,0.4,1.2,1.6-1.2,1.2c-2.4-0.4-5.2-0.8-9.6-6V131.05z"/>
	</g>
	<g id="g498">
		<path id="path500" style="fill:#992600;" d="M-111.6,110c0,0,1.8-13.6,3-17.6c0,0-0.8-6.8,1.6-11s4.4-10.4,7.4-15.8
			c3-5.4,3.2-9.4,7.2-11s10-10.2,12.8-11.2s2.6-0.2,2.6-0.2s6.8-14.8,20.4-10.8c0,0-16.2-2.8-0.4-12.2c0,0-4.8,1.1-1.5-5.9
			c2.2-4.67,1.7,2.1-9.3,13.9c0,0-5,8.6-10.2,11.6s-17.2,10-18.4,13.8c-1.2,3.8-4.4,9.6-6.4,11.2c-2,1.6-4.8,5.8-5.2,9.2
			c0,0-1.2,4-2.6,5.2s-1.6,4.4-1.6,6.4s-2,4.8-1.8,7.2c0,0,0.8,19,0.4,21L-111.6,110L-111.6,110z"/>
	</g>
	<g id="g502">
		<path id="path504" style="fill:#FFFFFF;" d="M-120.2,114.6c0,0-2-1.4-6.4,4.6c0,0,7.3,33,7.3,34.4c0,0,1.1-2.1-0.2-9.3
			s-2.2-19.9-2.2-19.9L-120.2,114.6L-120.2,114.6z"/>
	</g>
	<g id="g506">
		<path id="path508" style="fill:#992600;" d="M-98.6,54c0,0-17.6,3.2-17.2,32.4l-0.8,24.8c0,0-1.2-25.6-2.4-27.2s2.8-12.8-0.4-6.8
			c0,0-14,14-6,35.2c0,0,1.5,3.3-1.5-1.3c0,0-4.6-12.6-3.5-19c0,0,0.2-2.2,2.1-5c0,0,8.6-11.7,11.3-14c0,0,1.8-14.4,17.2-19.6
			C-99.8,53.5-94.1,51.2-98.6,54L-98.6,54z"/>
	</g>
	<g id="g510">
		<path id="path512" d="M40.8-12.2c0.66-0.35,0.65-1.32,1.23-1.5c1.15-0.34,1.31-1.41,1.83-2.19c0.87-1.32,1.07-2.85,1.65-4.34
			c0.27-0.7,0.3-1.66-0.01-2.32c-1.17-2.48-1.88-4.93-3.32-7.36c-0.27-0.45-0.53-1.24-0.73-1.84c-0.46-1.38-1.72-2.38-2.58-3.7
			c-0.29-0.44,0.24-1.37-0.48-1.45c-0.9-0.1-2.35-0.69-2.58,0.34c-0.59,2.59,0.42,5.11,1.39,7.55c-0.78,0.69-0.45,1.61-0.3,2.38
			c0.71,3.61-0.49,6.96-1.25,10.43c-0.02,0.1,0.32,0.3,0.29,0.36c-1.22,2.69-2.67,5.13-4.49,7.51c-0.76,0.99-1.63,1.91-2.13,2.97
			c-0.37,0.79-0.78,1.75-0.53,2.74c-3.44,2.78-5.69,6.63-8.3,10.47c-0.46,0.68-0.17,1.89,0.38,2.16c0.81,0.4,1.77-0.63,2.24-1.47
			c0.39-0.7,0.74-1.35,1.23-1.99c0.13-0.18-0.05-0.59,0.09-0.72c2.63-2.35,4.3-5.28,6.76-7.65c1.95-0.33,3.49-1.33,5.24-2.34
			c0.31-0.18,0.83,0.07,1.12-0.12c1.75-1.18,1.75-3.21,1.86-5.12C39.46-10.27,39.66-11.59,40.8-12.2z"/>
	</g>
	<g id="g514">
		<path id="path516" d="M31.96-16.67c0.12-0.08-0.03-0.5,0.08-0.72c0.16-0.32,0.56-0.51,0.73-0.84c0.11-0.22-0.05-0.6,0.08-0.74
			c2.33-2.45,2.59-5.47,1.55-8.44c1.02-0.62,1.08-1.88,0.66-2.73c-0.85-1.7-1.05-3.63-2.02-5.17c-0.8-1.27-2.38-2.51-3.75-1.21
			c-0.42,0.4-0.74,1.19-0.46,1.9c0.06,0.16,0.35,0.31,0.32,0.39c-0.11,0.32-0.65,0.55-0.66,0.82c-0.03,1.5-0.98,3.01-0.35,4.34
			c0.77,1.63,1.59,3.49,2.27,5.26c-1.23,2.12-0.2,4.57-1.95,6.44c-0.14,0.15-0.13,0.53,0,0.73c0.29,0.49,0.7,0.89,1.18,1.18
			c0.2,0.12,0.55,0.12,0.75,0C30.95-15.8,31.35-16.29,31.96-16.67z"/>
	</g>
	<g id="g518">
		<path id="path520" d="M94.77-26.98c1.39,1.79,1.68,4.59-0.37,5.98c0.55,3.31,3.9,1.33,6,0.8c-0.11-0.39,0.12-0.73,0.4-0.74
			c1.06-0.01,1.74-1.05,2.8-0.86c0.44-1.56,2.07-2.26,2.72-3.64c1.72-3.69,1.13-7.97-1.45-11.21c-0.2-0.25,0.01-0.77-0.11-1.13
			C104-40,101.94-40.31,100-41c-1.18-3.88-1.84-7.91-3.6-11.6c-1.61-0.25-2.31-1.99-3.65-2.71c-1.33-0.72-1.9,0.86-1.86,1.91
			c0.01,0.21,0.46,0.43,0.29,0.79c-0.08,0.16-0.34,0.28-0.34,0.41c0,0.13,0.22,0.27,0.36,0.4c-0.92,0.82-2.34,1.3-2.64,2.44
			c-0.95,3.71,1.62,6.84,3.29,10.04c0.59,1.13-0.14,2.41-0.9,3.61c-0.44,0.69-0.33,1.82-0.05,2.68
			C91.65-30.7,93.24-28.96,94.77-26.98L94.77-26.98z"/>
	</g>
	<g id="g522">
		<path id="path524" d="M57.61-8.59c-1.49,1.85-4.9,4.42-1.98,6.35c0.19,0.13,0.56,0.13,0.74,0c2.02-1.57,4.02-2.47,6.46-3.05
			c0.12-0.03,0.4,0.44,0.77,0.28c1.61-0.7,3.62-0.65,4.81-1.98c3.77,0.22,7.33-0.89,10.72-2.2c1.16-0.45,2.43-1.01,3.63-1.51
			c1.38-0.58,2.58-1.5,3.69-2.65c0.13-0.14,0.49-0.05,0.75-0.05c-0.04-0.86,0.92-0.99,1.17-1.61c0.09-0.23-0.06-0.63,0.07-0.73
			c2.14-1.63,3.06-3.65,1.89-6.03c-0.29-0.58-0.53-1.2-1.1-1.67c-1.08-0.91-2.19-0.06-3.23-0.36c-0.16,0.63-0.89,0.46-1.27,0.65
			c-0.86,0.44-2.19-0.15-3.05,0.29c-1.36,0.69-2.6,0.86-4.03,1.24c-0.31,0.08-1.09-0.01-1.25,0.61c-0.13-0.13-0.28-0.37-0.39-0.35
			c-1.91,0.4-3.17,0.61-4.47,2.3c-0.1,0.13-0.54-0.05-0.7,0.09c-0.96,0.81-1.36,2.04-2.46,2.71c-0.2,0.12-0.55-0.05-0.75,0.08
			c-0.65,0.43-1.01,1.07-1.65,1.52c-0.33,0.23-0.73-0.1-0.7-0.35c0.25-1.95,0.9-3.73,0.32-5.61c2.08-2.52,4.59-4.47,6.4-7.2
			c0.01-2.17,0.71-4.31,0.59-6.39c-0.01-0.19-0.3-0.93-0.42-1.27c-0.31-0.85,0.59-1.92-0.25-2.64c-1.4-1.2-2.7-0.33-3.52,1.11
			c-1.84,0.39-3.9,1.08-5.48-0.15c-1.01-0.79-1.58-1.69-2.38-2.75c-0.99-1.3-0.65-2.74-0.58-4.3c0.01-0.13-0.31-0.26-0.31-0.4
			c0-0.13,0.22-0.27,0.35-0.4c-0.71-0.63-0.98-1.68-2-2c0.31-1.09-0.37-1.98-1.24-2.28c-1.99-0.69-3.67,1.22-5.56,1.29
			c-0.51,0.02-0.98-1.02-1.63-1.34c-0.43-0.22-1.14-0.25-1.5,0.02c-0.69,0.5-1.28,0.62-2.03,0.82c-1.62,0.44-2.9,1.53-4.38,2.38
			c-1.49,0.86-2.44,2.29-3.52,3.61c-0.94,1.15-1.08,3.57,0.34,4.07c1.84,0.65,3.15-2.05,5.11-1.73c0.31,0.05,0.52,0.36,0.41,0.75
			c0.39,0.11,0.61-0.12,0.8-0.4c0.86,1.02,2.02,1.36,2.96,2.23c0.97,0.9,2.72,0.49,3.73,1.48c1.53,1.5,0.97,4.18,2.91,5.49
			c-0.59,1.31-1.19,2.59-1.53,4.02c-0.28,1.21,0.71,2.4,1.92,2.31c1.26-0.09,1.52-0.85,2.01-1.93c0.27,0.27,0.74,0.56,0.69,0.78
			c-0.46,2.39-1.48,4.38-1.94,6.81c-0.06,0.32-0.36,0.52-0.75,0.41c-0.47,4.15-4.52,6.54-7.07,9.71c-0.4,0.5-0.41,1.75,0,2.15
			C49.14-4.95,51.1-6.5,52.8-7c0.21-1.21,1.07-2.15,2.4-2.09c0.26,0.01,0.49-0.53,0.81-0.66c0.35-0.14,0.85,0.09,1.14-0.11
			c1.73-1.19,3.14-2.3,4.88-3.49c0.19-0.13,0.54,0.03,0.75-0.08c0.33-0.16,0.51-0.55,0.83-0.73c0.35-0.2,0.59,0.09,0.78,0.37
			c-0.65,0.35-0.65,1.31-1.23,1.51c-0.78,0.27-1.34,0.78-2.01,1.23c-0.29,0.19-0.95-0.06-1.06,0.12
			C59.51-9.91,58.32-9.47,57.61-8.59L57.61-8.59z"/>
	</g>
	<g id="g526">
		<path id="path528" d="M2.2-58c0,0-9.24-2.87-20.4,22.8c0,0-2.4,5.2-4.8,7.2s-13.6,5.6-15.6,9.6L-49-2.4c0,0,14.8-16,18-18.4
			c0,0,8-8.4,4.8-1.6c0,0-14,10.8-12.8,20c0,0-5.6,14.4-6.4,16.4c0,0,16-32,18.4-33.2s3.6-1.2,2.4,2.4c-1.2,3.6-1.6,20-4.4,22
			c0,0,8-20.4,7.2-23.6c0,0,3.2-3.6,5.6,1.6l-1.2,16l4.4,12c0,0-2.4-11.2-0.8-26.8c0,0-2-10.4,2-4.8S1.8-8.8,1.8-4
			c0,0-5.2-17.6-14.4-22.4l-4,6l-1.2-2c0,0-3.6-0.8,0.8-7.6s4-7.6,4-7.6s6.4,7.2,8,7.2c0,0,13.2-7.6,14.4,16.8
			c0,0,6.8-14.4-2.4-21.2c0,0-14.8-2-13.6-7.2l7.2-12.4c3.6-5.2,2-2.4,2-2.4L2.2-58z"/>
	</g>
	<g id="g530">
		<path id="path532" d="M-17.8-41.6l-16,5.2l-7.2,9.6c0,0,17.2-10,21.2-11.2S-17.8-41.6-17.8-41.6z"/>
	</g>
	<g id="g534">
		<path id="path536" d="M-57.8-35.2c0,0-2,1.2-2.4,4s-2.8,3.2-2,6s2.8,5.2,2.8,1.2s1.6-6,2.4-7.2C-56.2-32.4-54.6-36.8-57.8-35.2z"
			/>
	</g>
	<g id="g538">
		<path id="path540" d="M-66.6,26c0,0-8.4-4-11.6-7.6s-2.75,1.57-7.6,1.2c-5.85-0.44-4.8-16.4-4.8-16.4l-4,7.6c0,0-1.2,14.4,6.8,12
			c3.91-1.17,5.2,0.4,3.6,1.2s5.6,1.2,2.8,2.8c-2.8,1.6,11.6-3.6,9.2,6.8C-72.2,33.6-66.6,26-66.6,26z"/>
	</g>
	<g id="g542">
		<path id="path544" d="M-79.2,40.4c0,0-15.4,4.4-19-5.2c0,0-4.8,2.4-2.6,5.4s3.4,3.4,3.4,3.4s5.4,1.2,4.8,2s-3,4.2-3,4.2
			S-85.4,44.2-79.2,40.4L-79.2,40.4z"/>
	</g>
	<g id="g546">
		<path id="path548" style="fill:#FFFFFF;" d="M149.2,118.6c-0.43,2.14-2.1,2.94-4,3.6c-1.92-0.96-4.51-4.06-6.4-2
			c-0.47-0.48-1.25-0.54-1.6-1.2c-0.46-0.9-0.19-1.94-0.53-2.74c-0.55-1.28-1.25-2.64-1.07-4.06c1.81-0.71,2.4-2.62,1.93-4.38
			c-0.07-0.26-0.5-0.45-0.3-0.8c0.19-0.33,0.5-0.55,0.77-0.82c-0.13,0.14-0.28,0.37-0.39,0.35c-0.61-0.11-0.49-0.75-0.36-1.13
			c0.59-1.75,2.6-2.01,3.95-0.82c0.26-0.56,0.77-0.37,1.2-0.4c-0.05-0.58,0.36-1.11,0.56-1.53c0.52-1.09,2.14,0.01,2.94-0.6
			c1.08-0.83,2.14-1.52,3.22-0.92c1.81,1.01,3.52,2.22,4.72,3.97c0.57,0.83,0.81,2.11,0.75,3.07c-0.04,0.65-1.42,0.29-1.76,1.22
			c-0.65,1.75,1.19,2.27,1.94,3.61c0.2,0.35-0.06,0.65-0.38,0.75c-0.41,0.13-1.19-0.06-1.06,0.39
			C154.31,117.35,151.55,118.03,149.2,118.6L149.2,118.6z"/>
	</g>
	<g id="g550">
		<path id="path552" style="fill:#FFFFFF;" d="M139.6,138.2c-0.01-1.74-1.61-3.49-0.4-5.2c0.14,0.14,0.27,0.36,0.4,0.36
			c0.14,0,0.27-0.22,0.4-0.36c1.5,2.22,5.15,3.14,5.01,5.99c-0.03,0.45-1.11,1.37-0.21,2.01c-1.81,1.35-1.87,3.72-2.8,5.6
			c-1.24-0.28-2.45-0.65-3.6-1.2c0.35-1.48,0.24-3.17,1.06-4.49C139.89,140.21,139.6,139.13,139.6,138.2L139.6,138.2z"/>
	</g>
	<g id="g554">
		<path id="path556" style="fill:#CCCCCC;" d="M-26.6,129.2c0,0-16.86,10.14-2.8-5.2c8.8-9.6,18.8-15.2,18.8-15.2s10.4-4.4,14-5.6
			s18.8-6.4,22-6.8S38.2,92,45,96s14.8,8.4,14.8,8.4s-16.4-8.4-20-6c-3.6,2.4-10.8,2-16.8,5.2c0,0-14.8,4.4-18,6.4
			s-13.6,13.6-15.2,12.8s0.4-1.2,1.6-4s-0.8-4.4-8.8,2S-26.6,129.2-26.6,129.2z"/>
	</g>
	<g id="g558">
		<path id="path560" d="M-19.2,123.23c0,0,1.41-13.04,9.89-11.37c0,0,8.23-4.17,10.95-6.14c0,0,8.14-1.7,9.45-2.32
			c18.48-8.7,33.2-4.18,33.75-5.3c0.55-1.12,20.17,6,23.78,10.08c0.39,0.45-10.23-5.59-19.93-7.48c-8.27-1.62-29.88,0.24-40.78,5.78
			c-2.97,1.51-11.92,7.29-14.45,7.18S-19.2,123.23-19.2,123.23L-19.2,123.23z"/>
	</g>
	<g id="g562">
		<path id="path564" style="fill:#CCCCCC;" d="M-23,148.8c0,0-15.2-2.4,1.6-4c0,0,18-2,22-7.2c0,0,13.6-9.2,16.4-9.6
			c2.8-0.4,32.8-7.6,33.2-10s6-2.4,7.6-1.6s0.8,2-2,2.8s-34,17.2-40.4,18.4s-18,8.8-22.8,10S-23,148.8-23,148.8z"/>
	</g>
	<g id="g566">
		<path id="path568" d="M-3.48,141.4c0,0-8.58-0.83,0.02-1.64c0,0,8.82-3.43,10.86-6.09c0,0,6.96-4.71,8.4-4.92
			c1.43-0.2,15.39-3.89,15.6-5.12s34.27-13.81,38.69-10.62c2.91,2.1-6.99,0.43-16.62,4.84c-1.35,0.62-35.21,15.2-38.49,15.82
			c-3.28,0.61-9.22,4.5-11.67,5.12C0.85,139.4-3.48,141.4-3.48,141.4L-3.48,141.4z"/>
	</g>
	<g id="g570">
		<path id="path572" d="M-11.4,143.6c0,0,5.2-0.4,4,1.2s-3.6,0.8-3.6,0.8L-11.4,143.6z"/>
	</g>
	<g id="g574">
		<path id="path576" d="M-18.6,145.2c0,0,5.2-0.4,4,1.2s-3.6,0.8-3.6,0.8L-18.6,145.2z"/>
	</g>
	<g id="g578">
		<path id="path580" d="M-29,146.8c0,0,5.2-0.4,4,1.2s-3.6,0.8-3.6,0.8L-29,146.8z"/>
	</g>
	<g id="g582">
		<path id="path584" d="M-36.6,147.6c0,0,5.2-0.4,4,1.2c-1.2,1.6-3.6,0.8-3.6,0.8L-36.6,147.6z"/>
	</g>
	<g id="g586">
		<path id="path588" d="M1.8,108l3.2,1.6c-1.2,1.6-4.4,1.2-4.4,1.2L1.8,108L1.8,108z"/>
	</g>
	<g id="g590">
		<path id="path592" d="M-8.2,113.6c0,0,6.51-2.14,4,1.2c-1.2,1.6-3.6,0.8-3.6,0.8L-8.2,113.6z"/>
	</g>
	<g id="g594">
		<path id="path596" d="M-19.4,118.4c0,0,5.2-0.4,4,1.2s-3.6,0.8-3.6,0.8L-19.4,118.4z"/>
	</g>
	<g id="g598">
		<path id="path600" d="M-27,124.4c0,0,5.2-0.4,4,1.2c-1.2,1.6-3.6,0.8-3.6,0.8L-27,124.4z"/>
	</g>
	<g id="g602">
		<path id="path604" d="M-33.8,129.2c0,0,5.2-0.4,4,1.2s-3.6,0.8-3.6,0.8L-33.8,129.2z"/>
	</g>
	<g id="g606">
		<path id="path608" d="M5.28,135.6c0,0,6.92-0.53,5.32,1.6c-1.6,2.12-4.79,1.06-4.79,1.06L5.28,135.6z"/>
	</g>
	<g id="g610">
		<path id="path612" d="M15.68,130.8c0,0,6.92-0.53,5.32,1.6c-1.6,2.12-4.79,1.06-4.79,1.06S15.68,130.8,15.68,130.8z"/>
	</g>
	<g id="g614">
		<path id="path616" d="M26.48,126.4c0,0,6.92-0.53,5.32,1.6c-1.6,2.12-4.79,1.06-4.79,1.06L26.48,126.4L26.48,126.4z"/>
	</g>
	<g id="g618">
		<path id="path620" d="M36.88,121.6c0,0,6.92-0.53,5.32,1.6c-1.6,2.12-4.79,1.06-4.79,1.06L36.88,121.6L36.88,121.6z"/>
	</g>
	<g id="g622">
		<path id="path624" d="M9.28,103.6c0,0,6.92-0.53,5.32,1.6c-1.6,2.12-5.59,1.86-5.59,1.86S9.28,103.6,9.28,103.6z"/>
	</g>
	<g id="g626">
		<path id="path628" d="M19.28,100.4c0,0,6.92-0.53,5.32,1.6c-1.6,2.12-5.99,1.86-5.99,1.86S19.28,100.4,19.28,100.4z"/>
	</g>
	<g id="g630">
		<path id="path632" d="M-3.4,140.4c0,0,5.2-0.4,4,1.2s-3.6,0.8-3.6,0.8L-3.4,140.4z"/>
	</g>
	<g id="g634">
		<path id="path636" style="fill:#992600;" d="M-76.6,41.2c0,0-4.4,8.8-4.8,12c0,0,0.8-8.8,2-10.8S-76.6,41.2-76.6,41.2z"/>
	</g>
	<g id="g638">
		<path id="path640" style="fill:#992600;" d="M-95,55.2c0,0-3.2,14.4-2.8,17.2c0,0-1.2-11.6-0.8-12.8S-95,55.2-95,55.2L-95,55.2z"
			/>
	</g>
	<g id="g642">
		<path id="path644" style="fill:#CCCCCC;" d="M-74.2-19.4l-0.2,3.2l-2.2,0.2c0,0,14.2,12.6,14.8,20.2C-61.8,4.2-61-4-74.2-19.4
			L-74.2-19.4z"/>
	</g>
	<g id="g646">
		<path id="path648" d="M-70.22-18.14c-0.43-0.42-0.21-1.16-0.62-1.42c-0.81-0.52,1.3-0.57,1.07-1.29c-0.38-1.21-0.2-1.23-0.32-2.5
			c-0.06-0.6,0.53-2.14,0.92-2.58c1.45-1.65,0.12-4.58,1.76-6.14c0.3-0.29,0.68-0.84,0.96-1.26c0.66-0.96,1.84-1.45,2.79-2.28
			c0.32-0.28,0.12-1.1,0.69-1.01c0.71,0.12,1.96-0.01,1.91,0.83c-0.11,2.12-1.44,3.84-2.72,5.51c0.45,0.7-0.01,1.34-0.29,1.9
			c-1.33,2.62-1.15,5.46-1.32,8.3c0,0.08-0.31,0.16-0.3,0.22c0.35,2.33,0.94,4.53,1.82,6.76c0.37,0.93,0.84,1.83,0.99,2.75
			c0.11,0.69,0.21,1.52-0.19,2.22c2.03,2.89,0.73,5.54,1.9,9.07c0.21,0.63,1.9,2.54,1.44,2.38c-2.51-0.87-2.62-1.27-2.8-2.02
			c-0.15-0.62-0.48-2-0.71-2.6c-0.06-0.16-0.24-2.05-0.31-2.17c-1.51-2.38-0.15-2.21-1.53-4.56c-1.43-0.68-2.39-1.78-3.52-2.95
			c-0.2-0.2,0.94-0.93,0.76-1.14c-1.09-1.29-2.25-2.06-1.91-3.55C-69.61-16.36-69.47-17.42-70.22-18.14L-70.22-18.14z"/>
	</g>
	<g id="g650">
		<path id="path652" d="M-73.8-16.4c0,0,0.4,6.8,2.8,8.4s1.2,0.8-2-0.4s-2-2-2-2S-77.8-10-75.4-8s6,4.4,4.4,4.4s-9.2-4-9.2-6.8
			s-1-6.9-1-6.9s1.1-0.8,5.9-0.7C-75.3-18-73.9-17.3-73.8-16.4L-73.8-16.4z"/>
	</g>
	<g id="g654">
		<path id="path656" style="fill:#FFFFFF;stroke:#000000;stroke-width:0.1;" d="M-74.6,2.2c0,0-8.52-2.79-27,0.6
			c0,0,9.03-2.08,27.8,0.2C-63.5,4.25-74.6,2.2-74.6,2.2L-74.6,2.2z"/>
	</g>
	<g id="g658">
		<path id="path660" style="fill:#FFFFFF;stroke:#000000;stroke-width:0.1;" d="M-72.5,2.13c0,0-8.25-3.52-26.95-1.74
			c0,0,9.18-1.29,27.68,2.6C-61.62,5.13-72.5,2.13-72.5,2.13z"/>
	</g>
	<g id="g662">
		<path id="path664" style="fill:#FFFFFF;stroke:#000000;stroke-width:0.1;" d="M-70.71,2.22c0,0-7.96-4.12-26.75-3.74
			c0,0,9.25-0.6,27.41,4.65C-60.09,6.03-70.71,2.22-70.71,2.22L-70.71,2.22z"/>
	</g>
	<g id="g666">
		<path id="path668" style="fill:#FFFFFF;stroke:#000000;stroke-width:0.1;" d="M-69.44,2.45c0,0-6.82-4.31-23.7-5.41
			c0,0,8.34,0.17,24.22,6.28C-60.21,6.67-69.44,2.44-69.44,2.45z"/>
	</g>
	<g id="g670">
		<path id="path672" style="fill:#FFFFFF;stroke:#000000;stroke-width:0.1;" d="M45.84,12.96c0,0-0.93,0.64-0.72-0.54
			c0.22-1.18,28.42-14.35,32.04-14.1C77.16-1.68,46.91,11.53,45.84,12.96z"/>
	</g>
	<g id="g674">
		<path id="path676" style="fill:#FFFFFF;stroke:#000000;stroke-width:0.1;" d="M42.45,13.6c0,0-0.88,0.72-0.76-0.48
			S68.9-3.42,72.52-3.45C72.52-3.45,43.4,12.09,42.45,13.6z"/>
	</g>
	<g id="g678">
		<path id="path680" style="fill:#FFFFFF;stroke:#000000;stroke-width:0.1;" d="M39.16,14.98c0,0-0.83,0.77-0.79-0.43
			c0.04-1.2,19.86-16.7,29.67-18.57C68.05-4.02,50.02,4.1,39.16,14.98z"/>
	</g>
	<g id="g682">
		<path id="path684" style="fill:#FFFFFF;stroke:#000000;stroke-width:0.1;" d="M36.28,16.84c0,0-0.74,0.69-0.71-0.39
			c0.04-1.08,17.87-15.03,26.7-16.71C62.28-0.26,46.05,7.05,36.28,16.84z"/>
	</g>
	<g id="g686">
		<path id="path688" style="fill:#CCCCCC;" d="M4.6,164.8c0,0-15.2-2.4,1.6-4c0,0,18-2,22-7.2c0,0,13.6-9.2,16.4-9.6
			s19.2-4,19.6-6.4c0.4-2.4,6.4-4.8,8-4s1.6,10-1.2,10.8s-21.6,8-28,9.2s-18,8.8-22.8,10S4.6,164.8,4.6,164.8z"/>
	</g>
	<g id="g690">
		<path id="path692" d="M77.6,127.4c0,0-3,1.6-4.2,4.2c0,0-6.4,10.6-20.6,13.8c0,0-23,9-30.8,11c0,0-13.4,5-20.8,4.2
			c0,0-7,0.2-0.8,1.8c0,0,20.2-2,23.6-3.8c0,0,15.6-5.2,18.6-7.8s21.2-7.6,23.4-9.6S78,130.8,77.6,127.4L77.6,127.4z"/>
	</g>
	<g id="g694">
		<path id="path696" d="M18.88,158.91c0,0,5.23-0.23,4.08,1.32s-3.6,0.68-3.6,0.68L18.88,158.91z"/>
	</g>
	<g id="g698">
		<path id="path700" d="M11.68,160.26c0,0,5.23-0.22,4.08,1.33c-1.15,1.55-3.6,0.67-3.6,0.67L11.68,160.26z"/>
	</g>
	<g id="g702">
		<path id="path704" d="M1.25,161.51c0,0,5.23-0.23,4.08,1.32s-3.6,0.68-3.6,0.68L1.25,161.51z"/>
	</g>
	<g id="g706">
		<path id="path708" d="M-6.38,162.06c0,0,5.23-0.23,4.08,1.32s-3.6,0.67-3.6,0.67L-6.38,162.06z"/>
	</g>
	<g id="g710">
		<path id="path712" d="M35.42,151.51c0,0,6.96-0.3,5.42,1.76c-1.53,2.07-4.79,0.9-4.79,0.9L35.42,151.51L35.42,151.51z"/>
	</g>
	<g id="g714">
		<path id="path716" d="M45.73,147.09c0,0,5.96-3.3,5.43,1.76c-0.27,2.55-4.79,0.9-4.79,0.9L45.73,147.09L45.73,147.09z"/>
	</g>
	<g id="g718">
		<path id="path720" d="M54.86,144.27c0,0,7.16-3.7,5.42,1.77c-0.78,2.44-4.79,0.9-4.79,0.9L54.86,144.27z"/>
	</g>
	<g id="g722">
		<path id="path724" d="M64.38,139.45c0,0,4.36-4.9,5.43,1.76c0.41,2.54-4.79,0.9-4.79,0.9L64.38,139.45L64.38,139.45z"/>
	</g>
	<g id="g726">
		<path id="path728" d="M26.83,156c0,0,5.23-0.23,4.08,1.32c-1.15,1.55-3.6,0.68-3.6,0.68L26.83,156z"/>
	</g>
	<g id="g730">
		<path id="path732" style="fill:#FFFFFF;stroke:#000000;stroke-width:0.1;" d="M62.43,34.6c0,0-0.73,0.67-0.73-0.41
			c0-1.07,17.48-14.33,26.33-15.72C88.03,18.48,71.94,25.21,62.43,34.6z"/>
	</g>
	<g id="g734">
		<path id="path736" d="M65.4,98.4c0,0,22,22.4,31.2,26c0,0,9.2,11.2,5.2,37.2c0,0-3.2,7.6-6.4-13.2c0,0,3.2-25.2-8-9.2
			c0,0-8.4-9.9-2-9.6c0,0,3.2,2,3.6,0.4s-7.6-15.2-24.8-29.6S65.4,98.4,65.4,98.4L65.4,98.4z"/>
	</g>
	<g id="g738">
		<path id="path740" style="fill:#FFFFFF;stroke:#000000;stroke-width:0.1;" d="M7,137.2c0,0-0.2-1.8,1.6-1s96,7,127.6,31
			C136.2,167.2,91,144,7,137.2z"/>
	</g>
	<g id="g742">
		<path id="path744" style="fill:#FFFFFF;stroke:#000000;stroke-width:0.1;" d="M17.4,132.8c0,0-0.2-1.8,1.6-1s138.4-0.2,162,32.2
			C181,164,159,138.8,17.4,132.8L17.4,132.8z"/>
	</g>
	<g id="g746">
		<path id="path748" style="fill:#FFFFFF;stroke:#000000;stroke-width:0.1;" d="M29,128.8c0,0-0.2-1.8,1.6-1
			c1.8,0.8,175.2-12.2,198.8,20.2C229.4,148,219.8,122.4,29,128.8L29,128.8z"/>
	</g>
	<g id="g750">
		<path id="path752" style="fill:#FFFFFF;stroke:#000000;stroke-width:0.1;" d="M39,124c0,0-0.2-1.8,1.6-1s124-37.8,147.6-5.4
			C188.2,117.6,174.8,93,39,124L39,124z"/>
	</g>
	<g id="g754">
		<path id="path756" style="fill:#FFFFFF;stroke:#000000;stroke-width:0.1;" d="M-19,146.8c0,0-0.2-1.8,1.6-1s19.6,3,21.6,41.8
			C4.2,187.6-3,145.6-19,146.8z"/>
	</g>
	<g id="g758">
		<path id="path760" style="fill:#FFFFFF;stroke:#000000;stroke-width:0.1;" d="M-27.8,148.4c0,0-0.2-1.8,1.6-1s16-3.8,13.2,35
			C-13,182.4-11.8,147.2-27.8,148.4z"/>
	</g>
	<g id="g762">
		<path id="path764" style="fill:#FFFFFF;stroke:#000000;stroke-width:0.1;" d="M-35.8,148.8c0,0-0.2-1.8,1.6-1s17.2,1.4,4.8,23.8
			C-29.4,171.6-19.8,147.6-35.8,148.8z"/>
	</g>
	<g id="g766">
		<path id="path768" style="fill:#FFFFFF;stroke:#000000;stroke-width:0.1;" d="M11.53,104.46c0,0-0.44,2,1.11,0.79
			c16.07-12.63,48.51-71.53,104.2-77.16C116.83,28.09,78.52,15.98,11.53,104.46L11.53,104.46z"/>
	</g>
	<g id="g770">
		<path id="path772" style="fill:#FFFFFF;stroke:#000000;stroke-width:0.1;" d="M22.73,102.66c0,0-1.36-1.19,0.5-1.81
			c1.87-0.63,114.31-73.13,153.6-65.16C176.83,35.69,149.72,28.18,22.73,102.66L22.73,102.66z"/>
	</g>
	<g id="g774">
		<path id="path776" style="fill:#FFFFFF;stroke:#000000;stroke-width:0.1;" d="M1.89,108.77c0,0-0.51,1.6,1.2,0.62
			c8.98-5.12,12.59-62.33,56.17-63.59C59.25,45.8,26.84,31.09,1.89,108.77L1.89,108.77z"/>
	</g>
	<g id="g778">
		<path id="path780" style="fill:#FFFFFF;stroke:#000000;stroke-width:0.1;" d="M-18.04,119.79c0,0-1.08,1.29,0.88,1.03
			c10.25-1.33,31.65-42.6,76.09-37.52C58.93,83.3,26.96,68.96-18.04,119.79L-18.04,119.79z"/>
	</g>
	<g id="g782">
		<path id="path784" style="fill:#FFFFFF;stroke:#000000;stroke-width:0.1;" d="M-6.8,113.67c0,0-0.81,1.47,1.06,0.84
			c9.8-3.27,22.88-47.89,67.47-51.43C61.73,63.08,27.6,55.14-6.8,113.67z"/>
	</g>
	<g id="g786">
		<path id="path788" style="fill:#FFFFFF;stroke:#000000;stroke-width:0.1;" d="M-25.08,124.91c0,0-0.87,1.04,0.71,0.84
			c8.3-1.08,25.64-34.51,61.63-30.4C37.26,95.35,11.37,83.73-25.08,124.91z"/>
	</g>
	<g id="g790">
		<path id="path792" style="fill:#FFFFFF;stroke:#000000;stroke-width:0.1;" d="M-32.68,130.82c0,0-1.01,1.05,0.59,0.93
			c4.17-0.31,34.81-33.39,53.27-17.89C21.18,113.86,9.17,95.14-32.68,130.82z"/>
	</g>
	<g id="g794">
		<path id="path796" style="fill:#FFFFFF;stroke:#000000;stroke-width:0.1;" d="M36.86,98.9c0,0-1.2-1.36,0.73-1.74
			c1.93-0.38,122.63-58.1,160.59-45.23C198.18,51.93,172.24,41.05,36.86,98.9L36.86,98.9z"/>
	</g>
	<g id="g798">
		<path id="path800" style="fill:#FFFFFF;stroke:#000000;stroke-width:0.1;" d="M3.4,163.2c0,0-0.2-1.8,1.6-1s17.2,1.4,4.8,23.8
			C9.8,186,19.4,162,3.4,163.2z"/>
	</g>
	<g id="g802">
		<path id="path804" style="fill:#FFFFFF;stroke:#000000;stroke-width:0.1;" d="M13.8,161.6c0,0-0.2-1.8,1.6-1s19.6,3,21.6,41.8
			C37,202.4,29.8,160.4,13.8,161.6z"/>
	</g>
	<g id="g806">
		<path id="path808" style="fill:#FFFFFF;stroke:#000000;stroke-width:0.1;" d="M20.6,160c0,0-0.2-1.8,1.6-1s26.4,4.2,50,36.6
			C72.2,195.6,36.6,158.8,20.6,160z"/>
	</g>
	<g id="g810">
		<path id="path812" style="fill:#FFFFFF;stroke:#000000;stroke-width:0.1;" d="M28.23,157.97c0,0-0.44-1.76,1.45-1.2
			c1.89,0.55,22.32-1.35,60.42,32.83C90.1,189.6,43.92,154.66,28.23,157.97z"/>
	</g>
	<g id="g814">
		<path id="path816" style="fill:#FFFFFF;stroke:#000000;stroke-width:0.1;" d="M38.63,153.57c0,0-0.44-1.76,1.45-1.2
			c1.89,0.55,36.72,5.05,88.42,40.03C128.5,192.4,54.32,150.26,38.63,153.57z"/>
	</g>
	<g id="g818">
		<path id="path820" style="fill:#FFFFFF;stroke:#000000;stroke-width:0.1;" d="M-1.8,142c0,0-0.2-1.8,1.6-1s55.2,3.4,85.6,30.2
			C85.4,171.2,50.5,146.43-1.8,142z"/>
	</g>
	<g id="g822">
		<path id="path824" style="fill:#FFFFFF;stroke:#000000;stroke-width:0.1;" d="M-11.8,146c0,0-0.2-1.8,1.6-1s26.4,4.2,50,36.6
			C39.8,181.6,4.2,144.8-11.8,146z"/>
	</g>
	<g id="g826">
		<path id="path828" style="fill:#FFFFFF;stroke:#000000;stroke-width:0.1;" d="M49.5,148.96c0,0-0.56-1.72,1.36-1.3
			c1.93,0.41,37,2.34,91.12,33.44C141.98,181.1,64.32,146.7,49.5,148.96z"/>
	</g>
	<g id="g830">
		<path id="path832" style="fill:#FFFFFF;stroke:#000000;stroke-width:0.1;" d="M57.9,146.56c0,0-0.56-1.72,1.36-1.3
			c1.93,0.41,37,2.34,91.12,33.44C150.38,178.7,73.32,143.9,57.9,146.56L57.9,146.56z"/>
	</g>
	<g id="g834">
		<path id="path836" style="fill:#FFFFFF;stroke:#000000;stroke-width:0.1;" d="M67.5,141.56c0,0-0.57-1.72,1.36-1.3
			c1.93,0.41,45,4.74,134.72,39.04C203.58,179.3,82.92,138.9,67.5,141.56L67.5,141.56z"/>
	</g>
	<g id="g838">
		<path id="path840" d="M-43.8,148.4c0,0,5.2-0.4,4,1.2s-3.6,0.8-3.6,0.8L-43.8,148.4z"/>
	</g>
	<g id="g842">
		<path id="path844" d="M-13,162.4c0,0,5.2-0.4,4,1.2s-3.6,0.8-3.6,0.8L-13,162.4z"/>
	</g>
	<g id="g846">
		<path id="path848" d="M-21.8,162c0,0,5.2-0.4,4,1.2s-3.6,0.8-3.6,0.8L-21.8,162z"/>
	</g>
	<g id="g850">
		<path id="path852" d="M-117.17,150.18c0,0,5.05,1.32,3.39,2.44s-3.67-0.42-3.67-0.42L-117.17,150.18z"/>
	</g>
	<g id="g854">
		<path id="path856" d="M-115.17,140.58c0,0,5.05,1.32,3.39,2.44s-3.67-0.42-3.67-0.42L-115.17,140.58z"/>
	</g>
	<g id="g858">
		<path id="path860" d="M-122.37,136.18c0,0,5.05,1.32,3.39,2.44s-3.67-0.42-3.67-0.42L-122.37,136.18z"/>
	</g>
	<g id="g862">
		<path id="path864" style="fill:#CCCCCC;" d="M-42.6,211.2l-5.6,2c-2,0-13.2,3.6-18.8,13.6C-67,226.8-54.6,217.2-42.6,211.2z"/>
	</g>
	<g id="g866">
		<path id="path868" style="fill:#CCCCCC;" d="M45.12,303.85c0.14,0.25,0.2,0.67,0.49,0.69c0.66,0.04,1.89,0.34,1.77-0.29
			c-0.85-4.31-1.72-9.25-5.85-11.05c-0.64-0.28-2.08,0.13-2.15,1.02c-0.13,1.52-0.24,2.87,0.06,4.33c0.3,1.43,2.46,1.43,3.38,0.05
			C43.74,300.27,44.17,302.12,45.12,303.85L45.12,303.85z"/>
	</g>
	<g id="g870">
		<path id="path872" style="fill:#CCCCCC;" d="M34.04,308.58c0.75,1.41,0.62,3.27,2.04,3.84c0.74,0.29,2.59-0.68,2.17-1.76
			c-0.8-2.06-1.19-4.3-2.58-6.11c-0.2-0.26,0.04-0.79-0.12-1.12c-0.59-1.22-1.74-1.96-3.15-1.63c-1.12,2.2,0.03,4.33,1.56,6.04
			C34.09,307.99,33.93,308.37,34.04,308.58z"/>
	</g>
	<g id="g874">
		<path id="path876" style="fill:#CCCCCC;" d="M-5.56,303.39c-0.11-0.38-0.15-0.84,0.02-1.16c0.53-1.03,1.32-2.15,0.99-3.18
			c-0.35-1.05-1.46-0.87-2.11-0.3c-1.14,0.99-1.18,2.82-1.88,4.18c-0.2,0.38-0.15,0.96-0.59,1.35c-0.47,0.42-0.91,1.94-0.82,2.51
			c0.05,0.32-0.13,10.22,0.09,9.96c0.62-0.73,3.67-10.47,3.74-11.36C-6.06,304.66-5.33,304.2-5.56,303.39L-5.56,303.39z"/>
	</g>
	<g id="g878">
		<path id="path880" style="fill:#CCCCCC;" d="M-31.2,296.6c2.63-2.5,5.42-5.46,4.98-9.17c-0.12-0.98-1.89-0.45-2.08,0.39
			c-0.8,3.63-2.84,6.29-5.41,8.68c-2.2,2.05-4.06,8.39-4.29,8.9C-34.3,300.14-32.05,297.4-31.2,296.6z"/>
	</g>
	<g id="g882">
		<path id="path884" style="fill:#CCCCCC;" d="M-44.78,290.64c0.52-0.38,0.22-0.87,0.44-1.2c0.95-1.46,2.25-2.7,2.27-4.44
			c0-0.28-0.38-0.59-0.71-0.36c-0.28,0.18-0.62,0.31-0.73,0.44c-2.03,2.45-3.43,5.12-4.87,7.93c-0.18,0.36-1.33,4.85-1.01,4.96
			c0.24,0.09,1.96-4.09,2.17-4.21C-45.96,293.08-45.95,291.46-44.78,290.64z"/>
	</g>
	<g id="g886">
		<path id="path888" style="fill:#CCCCCC;" d="M-28.04,310.18c0.44-0.87,2.02-2.07,1.91-2.96c-0.12-0.93,0.35-2.37-0.56-1.68
			c-1.26,0.94-4.71,2.29-4.98,8.1C-31.7,314.21-28.73,311.52-28.04,310.18L-28.04,310.18z"/>
	</g>
	<g id="g890">
		<path id="path892" style="fill:#CCCCCC;" d="M-13.6,293c0.4-0.67,1.11-0.19,1.57-0.46c0.65-0.37,1.26-0.93,1.55-1.58
			c0.97-2.14,2.74-3.96,2.88-6.36c-1.49-1.4-2.17,0.64-2.8,1.6c-1.32-1.65-2.32,0.23-3.62,0.75c-0.07,0.03-0.28-0.32-0.36-0.29
			c-1.18,0.44-1.86,1.52-2.86,2.3c-0.17,0.13-0.58-0.05-0.72,0.09c-0.65,0.6-1.62,0.93-1.91,1.61c-1.11,2.7-4.25,4.8-6.14,12.34
			c0.38,0.91,4.51-6.64,5-7.34c0.84-1.2,0.95,1.66,2.23,1c0.05-0.03,0.24,0.21,0.37,0.34c0.19-0.28,0.41-0.51,0.8-0.4
			c0-0.4-0.13-0.96,0.07-1.11c1.24-0.98,1.15-2.05,1.93-3.29C-15.14,292.99-14.08,292.27-13.6,293z"/>
	</g>
	<g id="g894">
		<path id="path896" style="fill:#CCCCCC;" d="M46.2,347.4c0,0,7.4-20.4,3-31.6c0,0,11.4,21.6,6.8,32.8c0,0-0.4-10.4-4.4-15.4
			C51.6,333.2,47.6,346,46.2,347.4z"/>
	</g>
	<g id="g898">
		<path id="path900" style="fill:#CCCCCC;" d="M31.4,344.8c0,0,5.4-8.8-2.6-27.2c0,0-0.8,20.4-7.6,31.4
			C21.2,349,35.4,328.8,31.4,344.8L31.4,344.8z"/>
	</g>
	<g id="g902">
		<path id="path904" style="fill:#CCCCCC;" d="M21.4,342.8c0,0-0.2-20,0.2-23c0,0-3.8,16.6-14,26.2C7.6,346,22,334,21.4,342.8z"/>
	</g>
	<g id="g906">
		<path id="path908" style="fill:#CCCCCC;" d="M11.8,310.8c0,0,6,13.6-4,32c0,0,6.4-12.2,1.6-19.2C9.4,323.6,12,320.2,11.8,310.8z"
			/>
	</g>
	<g id="g910">
		<path id="path912" style="fill:#CCCCCC;" d="M-7.4,342.4c0,0-1-15.6,0.8-17.8c0,0,0.2-6.4-0.2-7.4c0,0,4-6.2,4.2,1.2
			c0,0,1.4,7.8,4.2,12.4c0,0,3.6,5.4,3.4,11.8C5,342.6-5,312.4-7.4,342.4z"/>
	</g>
	<g id="g914">
		<path id="path916" style="fill:#CCCCCC;" d="M-11,314.8c0,0-6.6,10.8-8.4,29.8c0,0-1.4-6.2,2.4-20.6C-17,324-12.8,308.6-11,314.8
			L-11,314.8z"/>
	</g>
	<g id="g918">
		<path id="path920" style="fill:#CCCCCC;" d="M-32.8,334.6c0,0,5-5.4,6.4-10.4c0,0,3.6-15.8-2.8-7.2c0,0,0.2,8-8,15.4
			C-37.2,332.4-32.4,330-32.8,334.6z"/>
	</g>
	<g id="g922">
		<path id="path924" style="fill:#CCCCCC;" d="M-38.6,329.6c0,0,3.4-17.4,4.2-18.2c0,0,1.8-3.4-1-0.2c0,0-8.8,19.2-12.8,25.8
			C-48.2,337-40.2,327.8-38.6,329.6L-38.6,329.6z"/>
	</g>
	<g id="g926">
		<path id="path928" style="fill:#CCCCCC;" d="M-44.4,313c0,0,11.6-22.4-10.2,3.4C-54.6,316.4-43.6,306.6-44.4,313z"/>
	</g>
	<g id="g930">
		<path id="path932" style="fill:#CCCCCC;" d="M-59.8,298.4c0,0,4.8-18.8,7.4-18.6l1.6,1.6c0,0-6,9.6-5.4,19.4
			C-56.2,300.8-56.8,291.2-59.8,298.4z"/>
	</g>
	<g id="g934">
		<path id="path936" style="fill:#CCCCCC;" d="M270.5,287c0,0-12-10-14.5-13.5c0,0,13.5,18.5,13.5,25.5
			C269.5,299,272,291.5,270.5,287z"/>
	</g>
	<g id="g938">
		<path id="path940" style="fill:#CCCCCC;" d="M276,265c0,0-21-15-24.5-22.5c0,0,26.5,29.5,26.5,34C278,276.5,278.5,267.5,276,265z"
			/>
	</g>
	<g id="g942">
		<path id="path944" style="fill:#CCCCCC;" d="M293,111c0,0-12-8-13.5-6c0,0,10.5,6.5,13,15C292.5,120,291,111,293,111z"/>
	</g>
	<g id="g946">
		<path id="path948" style="fill:#CCCCCC;" d="M301.5,191.5l-17.5-12c0,0,19,17,19.5,21L301.5,191.5z"/>
	</g>
	<g id="g950">
		<path id="path952" style="fill:none;stroke:#000000;" d="M-89.25,169l22,4.75"/>
	</g>
	<g id="g954">
		<path id="path956" style="fill:none;stroke:#000000;" d="M-39,331c0,0-0.5-3.5-9.5,7"/>
	</g>
	<g id="g958">
		<path id="path960" style="fill:none;stroke:#000000;" d="M-33.5,336c0,0,2-6.5-4.5-2"/>
	</g>
	<g id="g962">
		<path id="path964" style="fill:none;stroke:#000000;" d="M20.5,344.5c0,0,1.5-11-10,2"/>
	</g>
</g>
</svg>
